<svg xmlns="http://www.w3.org/2000/svg" width="1250" height="680" viewBox="0 0 1250 680"><rect width="1250" height="680" fill="#fffdf9"/><title>Same-Hour Weather Correlations To Power</title><rect x="300" y="65" width="910" height="545" rx="18" fill="#fff7ed"/><text x="625.0" y="34" text-anchor="middle" fill="#2a2623" font-size="24" font-family="Segoe UI, Arial, sans-serif">Same-Hour Weather Correlations To Power</text><text x="625.0" y="664.0" text-anchor="middle" fill="#77685c" font-size="14" font-family="Segoe UI, Arial, sans-serif">Pearson correlation</text><line x1="300.0" x2="300.0" y1="65" y2="610" stroke="#dfcfbb" stroke-width="1"/><text x="300.0" y="634.0" text-anchor="middle" fill="#77685c" font-size="12" font-family="Segoe UI, Arial, sans-serif">-0.56</text><line x1="527.5" x2="527.5" y1="65" y2="610" stroke="#dfcfbb" stroke-width="1"/><text x="527.5" y="634.0" text-anchor="middle" fill="#77685c" font-size="12" font-family="Segoe UI, Arial, sans-serif">-0.28</text><line x1="755.0" x2="755.0" y1="65" y2="610" stroke="#dfcfbb" stroke-width="1"/><text x="755.0" y="634.0" text-anchor="middle" fill="#77685c" font-size="12" font-family="Segoe UI, Arial, sans-serif">0.00</text><line x1="982.5" x2="982.5" y1="65" y2="610" stroke="#dfcfbb" stroke-width="1"/><text x="982.5" y="634.0" text-anchor="middle" fill="#77685c" font-size="12" font-family="Segoe UI, Arial, sans-serif">0.28</text><line x1="1210.0" x2="1210.0" y1="65" y2="610" stroke="#dfcfbb" stroke-width="1"/><text x="1210.0" y="634.0" text-anchor="middle" fill="#77685c" font-size="12" font-family="Segoe UI, Arial, sans-serif">0.56</text><line x1="755.0" x2="755.0" y1="65" y2="610" stroke="#2a2623" stroke-width="1.5"/><rect x="755.0" y="71.5" width="455.0" height="39.2" rx="8" fill="#2a7f62"/><text x="288" y="97.7" text-anchor="end" fill="#2a2623" font-size="12" font-family="Segoe UI, Arial, sans-serif">temperature VC Halle 3 c</text><text x="1218.0" y="97.7" text-anchor="start" fill="#77685c" font-size="12" font-family="Segoe UI, Arial, sans-serif">0.56</text><rect x="755.0" y="126.0" width="307.9" height="39.2" rx="8" fill="#2a7f62"/><text x="288" y="152.2" text-anchor="end" fill="#2a2623" font-size="12" font-family="Segoe UI, Arial, sans-serif">temperature mean (C)</text><text x="1070.9" y="152.2" text-anchor="start" fill="#77685c" font-size="12" font-family="Segoe UI, Arial, sans-serif">0.38</text><rect x="755.0" y="180.5" width="188.6" height="39.2" rx="8" fill="#2a7f62"/><text x="288" y="206.7" text-anchor="end" fill="#2a2623" font-size="12" font-family="Segoe UI, Arial, sans-serif">temperature Zentralgate c</text><text x="951.6" y="206.7" text-anchor="start" fill="#77685c" font-size="12" font-family="Segoe UI, Arial, sans-serif">0.23</text><rect x="583.0" y="235.0" width="172.0" height="39.2" rx="8" fill="#b85042"/><text x="288" y="261.2" text-anchor="end" fill="#2a2623" font-size="12" font-family="Segoe UI, Arial, sans-serif">wind direction VC Halle 3 cos</text><text x="763.0" y="261.2" text-anchor="start" fill="#77685c" font-size="12" font-family="Segoe UI, Arial, sans-serif">-0.21</text><rect x="597.7" y="289.5" width="157.3" height="39.2" rx="8" fill="#b85042"/><text x="288" y="315.7" text-anchor="end" fill="#2a2623" font-size="12" font-family="Segoe UI, Arial, sans-serif">wind direction mean (C)os</text><text x="763.0" y="315.7" text-anchor="start" fill="#77685c" font-size="12" font-family="Segoe UI, Arial, sans-serif">-0.19</text><rect x="614.1" y="344.0" width="140.9" height="39.2" rx="8" fill="#b85042"/><text x="288" y="370.2" text-anchor="end" fill="#2a2623" font-size="12" font-family="Segoe UI, Arial, sans-serif">wind direction Zentralgate cos</text><text x="763.0" y="370.2" text-anchor="start" fill="#77685c" font-size="12" font-family="Segoe UI, Arial, sans-serif">-0.17</text><rect x="675.0" y="398.5" width="80.0" height="39.2" rx="8" fill="#b85042"/><text x="288" y="424.7" text-anchor="end" fill="#2a2623" font-size="12" font-family="Segoe UI, Arial, sans-serif">wind direction Zentralgate consistency</text><text x="763.0" y="424.7" text-anchor="start" fill="#77685c" font-size="12" font-family="Segoe UI, Arial, sans-serif">-0.10</text><rect x="689.0" y="453.0" width="66.0" height="39.2" rx="8" fill="#b85042"/><text x="288" y="479.2" text-anchor="end" fill="#2a2623" font-size="12" font-family="Segoe UI, Arial, sans-serif">wind speed VC Halle 3</text><text x="763.0" y="479.2" text-anchor="start" fill="#77685c" font-size="12" font-family="Segoe UI, Arial, sans-serif">-0.08</text><rect x="755.0" y="507.5" width="56.8" height="39.2" rx="8" fill="#2a7f62"/><text x="288" y="533.7" text-anchor="end" fill="#2a2623" font-size="12" font-family="Segoe UI, Arial, sans-serif">wind direction VC Halle 3 consistency</text><text x="819.8" y="533.7" text-anchor="start" fill="#77685c" font-size="12" font-family="Segoe UI, Arial, sans-serif">0.07</text><rect x="723.2" y="562.0" width="31.8" height="39.2" rx="8" fill="#b85042"/><text x="288" y="588.2" text-anchor="end" fill="#2a2623" font-size="12" font-family="Segoe UI, Arial, sans-serif">wind direction mean (C)onsistency</text><text x="763.0" y="588.2" text-anchor="start" fill="#77685c" font-size="12" font-family="Segoe UI, Arial, sans-serif">-0.04</text></svg>