<svg xmlns="http://www.w3.org/2000/svg" width="1320" height="620" viewBox="0 0 1320 620"><rect width="1320" height="620" fill="#fffdf9"/><title>Forecast-Horizon Sensitivity For temperature VC Halle 3 c</title><rect x="210" y="70" width="1070" height="460" rx="18" fill="#fff7ed"/><text x="660.0" y="36" text-anchor="middle" fill="#2a2623" font-size="24" font-family="Segoe UI, Arial, sans-serif">Forecast-Horizon Sensitivity For temperature VC Halle 3 c</text><text x="198" y="107.4" text-anchor="end" fill="#2a2623" font-size="12" font-family="Segoe UI, Arial, sans-serif">1 h</text><rect x="210.0" y="70.0" width="42.6" height="55.5" rx="8" fill="#84a995"/><text x="232.3" y="104.5" text-anchor="middle" fill="#ffffff" font-size="11" font-family="Segoe UI, Arial, sans-serif">0.56</text><rect x="254.6" y="70.0" width="42.6" height="55.5" rx="8" fill="#84a995"/><text x="276.9" y="104.5" text-anchor="middle" fill="#ffffff" font-size="11" font-family="Segoe UI, Arial, sans-serif">0.56</text><rect x="299.2" y="70.0" width="42.6" height="55.5" rx="8" fill="#85a996"/><text x="321.5" y="104.5" text-anchor="middle" fill="#ffffff" font-size="11" font-family="Segoe UI, Arial, sans-serif">0.55</text><rect x="343.8" y="70.0" width="42.6" height="55.5" rx="8" fill="#86a996"/><text x="366.0" y="104.5" text-anchor="middle" fill="#ffffff" font-size="11" font-family="Segoe UI, Arial, sans-serif">0.55</text><rect x="388.3" y="70.0" width="42.6" height="55.5" rx="8" fill="#87aa97"/><text x="410.6" y="104.5" text-anchor="middle" fill="#ffffff" font-size="11" font-family="Segoe UI, Arial, sans-serif">0.54</text><rect x="432.9" y="70.0" width="42.6" height="55.5" rx="8" fill="#88aa97"/><text x="455.2" y="104.5" text-anchor="middle" fill="#ffffff" font-size="11" font-family="Segoe UI, Arial, sans-serif">0.54</text><rect x="477.5" y="70.0" width="42.6" height="55.5" rx="8" fill="#89ab98"/><text x="499.8" y="104.5" text-anchor="middle" fill="#ffffff" font-size="11" font-family="Segoe UI, Arial, sans-serif">0.54</text><rect x="522.1" y="70.0" width="42.6" height="55.5" rx="8" fill="#89ab98"/><text x="544.4" y="104.5" text-anchor="middle" fill="#ffffff" font-size="11" font-family="Segoe UI, Arial, sans-serif">0.53</text><rect x="566.7" y="70.0" width="42.6" height="55.5" rx="8" fill="#8aab99"/><text x="589.0" y="104.5" text-anchor="middle" fill="#ffffff" font-size="11" font-family="Segoe UI, Arial, sans-serif">0.53</text><rect x="611.2" y="70.0" width="42.6" height="55.5" rx="8" fill="#8bac99"/><text x="633.5" y="104.5" text-anchor="middle" fill="#ffffff" font-size="11" font-family="Segoe UI, Arial, sans-serif">0.52</text><rect x="655.8" y="70.0" width="42.6" height="55.5" rx="8" fill="#8cac9a"/><text x="678.1" y="104.5" text-anchor="middle" fill="#ffffff" font-size="11" font-family="Segoe UI, Arial, sans-serif">0.52</text><rect x="700.4" y="70.0" width="42.6" height="55.5" rx="8" fill="#8cac9a"/><text x="722.7" y="104.5" text-anchor="middle" fill="#ffffff" font-size="11" font-family="Segoe UI, Arial, sans-serif">0.52</text><rect x="745.0" y="70.0" width="42.6" height="55.5" rx="8" fill="#8dad9a"/><text x="767.3" y="104.5" text-anchor="middle" fill="#ffffff" font-size="11" font-family="Segoe UI, Arial, sans-serif">0.51</text><rect x="789.6" y="70.0" width="42.6" height="55.5" rx="8" fill="#8ead9b"/><text x="811.9" y="104.5" text-anchor="middle" fill="#ffffff" font-size="11" font-family="Segoe UI, Arial, sans-serif">0.51</text><rect x="834.2" y="70.0" width="42.6" height="55.5" rx="8" fill="#8ead9b"/><text x="856.5" y="104.5" text-anchor="middle" fill="#ffffff" font-size="11" font-family="Segoe UI, Arial, sans-serif">0.51</text><rect x="878.8" y="70.0" width="42.6" height="55.5" rx="8" fill="#8ead9b"/><text x="901.0" y="104.5" text-anchor="middle" fill="#ffffff" font-size="11" font-family="Segoe UI, Arial, sans-serif">0.51</text><rect x="923.3" y="70.0" width="42.6" height="55.5" rx="8" fill="#8ead9b"/><text x="945.6" y="104.5" text-anchor="middle" fill="#ffffff" font-size="11" font-family="Segoe UI, Arial, sans-serif">0.51</text><rect x="967.9" y="70.0" width="42.6" height="55.5" rx="8" fill="#8ead9b"/><text x="990.2" y="104.5" text-anchor="middle" fill="#ffffff" font-size="11" font-family="Segoe UI, Arial, sans-serif">0.51</text><rect x="1012.5" y="70.0" width="42.6" height="55.5" rx="8" fill="#8dad9a"/><text x="1034.8" y="104.5" text-anchor="middle" fill="#ffffff" font-size="11" font-family="Segoe UI, Arial, sans-serif">0.51</text><rect x="1057.1" y="70.0" width="42.6" height="55.5" rx="8" fill="#8dac9a"/><text x="1079.4" y="104.5" text-anchor="middle" fill="#ffffff" font-size="11" font-family="Segoe UI, Arial, sans-serif">0.52</text><rect x="1101.7" y="70.0" width="42.6" height="55.5" rx="8" fill="#8cac9a"/><text x="1124.0" y="104.5" text-anchor="middle" fill="#ffffff" font-size="11" font-family="Segoe UI, Arial, sans-serif">0.52</text><rect x="1146.2" y="70.0" width="42.6" height="55.5" rx="8" fill="#8bac99"/><text x="1168.5" y="104.5" text-anchor="middle" fill="#ffffff" font-size="11" font-family="Segoe UI, Arial, sans-serif">0.52</text><rect x="1190.8" y="70.0" width="42.6" height="55.5" rx="8" fill="#8bac99"/><text x="1213.1" y="104.5" text-anchor="middle" fill="#ffffff" font-size="11" font-family="Segoe UI, Arial, sans-serif">0.53</text><rect x="1235.4" y="70.0" width="42.6" height="55.5" rx="8" fill="#8aab99"/><text x="1257.7" y="104.5" text-anchor="middle" fill="#ffffff" font-size="11" font-family="Segoe UI, Arial, sans-serif">0.53</text><text x="198" y="164.9" text-anchor="end" fill="#2a2623" font-size="12" font-family="Segoe UI, Arial, sans-serif">3 h</text><rect x="210.0" y="127.5" width="42.6" height="55.5" rx="8" fill="#84a995"/><text x="232.3" y="162.0" text-anchor="middle" fill="#ffffff" font-size="11" font-family="Segoe UI, Arial, sans-serif">0.56</text><rect x="254.6" y="127.5" width="42.6" height="55.5" rx="8" fill="#85a996"/><text x="276.9" y="162.0" text-anchor="middle" fill="#ffffff" font-size="11" font-family="Segoe UI, Arial, sans-serif">0.55</text><rect x="299.2" y="127.5" width="42.6" height="55.5" rx="8" fill="#86a996"/><text x="321.5" y="162.0" text-anchor="middle" fill="#ffffff" font-size="11" font-family="Segoe UI, Arial, sans-serif">0.55</text><rect x="343.8" y="127.5" width="42.6" height="55.5" rx="8" fill="#87aa97"/><text x="366.0" y="162.0" text-anchor="middle" fill="#ffffff" font-size="11" font-family="Segoe UI, Arial, sans-serif">0.55</text><rect x="388.3" y="127.5" width="42.6" height="55.5" rx="8" fill="#88aa97"/><text x="410.6" y="162.0" text-anchor="middle" fill="#ffffff" font-size="11" font-family="Segoe UI, Arial, sans-serif">0.54</text><rect x="432.9" y="127.5" width="42.6" height="55.5" rx="8" fill="#88ab98"/><text x="455.2" y="162.0" text-anchor="middle" fill="#ffffff" font-size="11" font-family="Segoe UI, Arial, sans-serif">0.54</text><rect x="477.5" y="127.5" width="42.6" height="55.5" rx="8" fill="#89ab98"/><text x="499.8" y="162.0" text-anchor="middle" fill="#ffffff" font-size="11" font-family="Segoe UI, Arial, sans-serif">0.53</text><rect x="522.1" y="127.5" width="42.6" height="55.5" rx="8" fill="#8aab99"/><text x="544.4" y="162.0" text-anchor="middle" fill="#ffffff" font-size="11" font-family="Segoe UI, Arial, sans-serif">0.53</text><rect x="566.7" y="127.5" width="42.6" height="55.5" rx="8" fill="#8bac99"/><text x="589.0" y="162.0" text-anchor="middle" fill="#ffffff" font-size="11" font-family="Segoe UI, Arial, sans-serif">0.53</text><rect x="611.2" y="127.5" width="42.6" height="55.5" rx="8" fill="#8bac99"/><text x="633.5" y="162.0" text-anchor="middle" fill="#ffffff" font-size="11" font-family="Segoe UI, Arial, sans-serif">0.52</text><rect x="655.8" y="127.5" width="42.6" height="55.5" rx="8" fill="#8cac9a"/><text x="678.1" y="162.0" text-anchor="middle" fill="#ffffff" font-size="11" font-family="Segoe UI, Arial, sans-serif">0.52</text><rect x="700.4" y="127.5" width="42.6" height="55.5" rx="8" fill="#8dac9a"/><text x="722.7" y="162.0" text-anchor="middle" fill="#ffffff" font-size="11" font-family="Segoe UI, Arial, sans-serif">0.52</text><rect x="745.0" y="127.5" width="42.6" height="55.5" rx="8" fill="#8dad9a"/><text x="767.3" y="162.0" text-anchor="middle" fill="#ffffff" font-size="11" font-family="Segoe UI, Arial, sans-serif">0.51</text><rect x="789.6" y="127.5" width="42.6" height="55.5" rx="8" fill="#8dad9b"/><text x="811.9" y="162.0" text-anchor="middle" fill="#ffffff" font-size="11" font-family="Segoe UI, Arial, sans-serif">0.51</text><rect x="834.2" y="127.5" width="42.6" height="55.5" rx="8" fill="#8ead9b"/><text x="856.5" y="162.0" text-anchor="middle" fill="#ffffff" font-size="11" font-family="Segoe UI, Arial, sans-serif">0.51</text><rect x="878.8" y="127.5" width="42.6" height="55.5" rx="8" fill="#8ead9b"/><text x="901.0" y="162.0" text-anchor="middle" fill="#ffffff" font-size="11" font-family="Segoe UI, Arial, sans-serif">0.51</text><rect x="923.3" y="127.5" width="42.6" height="55.5" rx="8" fill="#8dad9a"/><text x="945.6" y="162.0" text-anchor="middle" fill="#ffffff" font-size="11" font-family="Segoe UI, Arial, sans-serif">0.51</text><rect x="967.9" y="127.5" width="42.6" height="55.5" rx="8" fill="#8dad9a"/><text x="990.2" y="162.0" text-anchor="middle" fill="#ffffff" font-size="11" font-family="Segoe UI, Arial, sans-serif">0.52</text><rect x="1012.5" y="127.5" width="42.6" height="55.5" rx="8" fill="#8cac9a"/><text x="1034.8" y="162.0" text-anchor="middle" fill="#ffffff" font-size="11" font-family="Segoe UI, Arial, sans-serif">0.52</text><rect x="1057.1" y="127.5" width="42.6" height="55.5" rx="8" fill="#8cac9a"/><text x="1079.4" y="162.0" text-anchor="middle" fill="#ffffff" font-size="11" font-family="Segoe UI, Arial, sans-serif">0.52</text><rect x="1101.7" y="127.5" width="42.6" height="55.5" rx="8" fill="#8bac99"/><text x="1124.0" y="162.0" text-anchor="middle" fill="#ffffff" font-size="11" font-family="Segoe UI, Arial, sans-serif">0.52</text><rect x="1146.2" y="127.5" width="42.6" height="55.5" rx="8" fill="#8aab99"/><text x="1168.5" y="162.0" text-anchor="middle" fill="#ffffff" font-size="11" font-family="Segoe UI, Arial, sans-serif">0.53</text><rect x="1190.8" y="127.5" width="42.6" height="55.5" rx="8" fill="#8aab98"/><text x="1213.1" y="162.0" text-anchor="middle" fill="#ffffff" font-size="11" font-family="Segoe UI, Arial, sans-serif">0.53</text><rect x="1235.4" y="127.5" width="42.6" height="55.5" rx="8" fill="#8aab98"/><text x="1257.7" y="162.0" text-anchor="middle" fill="#ffffff" font-size="11" font-family="Segoe UI, Arial, sans-serif">0.53</text><text x="198" y="222.4" text-anchor="end" fill="#2a2623" font-size="12" font-family="Segoe UI, Arial, sans-serif">6 h</text><rect x="210.0" y="185.0" width="42.6" height="55.5" rx="8" fill="#85a996"/><text x="232.3" y="219.5" text-anchor="middle" fill="#ffffff" font-size="11" font-family="Segoe UI, Arial, sans-serif">0.55</text><rect x="254.6" y="185.0" width="42.6" height="55.5" rx="8" fill="#86a996"/><text x="276.9" y="219.5" text-anchor="middle" fill="#ffffff" font-size="11" font-family="Segoe UI, Arial, sans-serif">0.55</text><rect x="299.2" y="185.0" width="42.6" height="55.5" rx="8" fill="#87aa97"/><text x="321.5" y="219.5" text-anchor="middle" fill="#ffffff" font-size="11" font-family="Segoe UI, Arial, sans-serif">0.55</text><rect x="343.8" y="185.0" width="42.6" height="55.5" rx="8" fill="#87aa97"/><text x="366.0" y="219.5" text-anchor="middle" fill="#ffffff" font-size="11" font-family="Segoe UI, Arial, sans-serif">0.54</text><rect x="388.3" y="185.0" width="42.6" height="55.5" rx="8" fill="#88aa98"/><text x="410.6" y="219.5" text-anchor="middle" fill="#ffffff" font-size="11" font-family="Segoe UI, Arial, sans-serif">0.54</text><rect x="432.9" y="185.0" width="42.6" height="55.5" rx="8" fill="#89ab98"/><text x="455.2" y="219.5" text-anchor="middle" fill="#ffffff" font-size="11" font-family="Segoe UI, Arial, sans-serif">0.53</text><rect x="477.5" y="185.0" width="42.6" height="55.5" rx="8" fill="#8aab98"/><text x="499.8" y="219.5" text-anchor="middle" fill="#ffffff" font-size="11" font-family="Segoe UI, Arial, sans-serif">0.53</text><rect x="522.1" y="185.0" width="42.6" height="55.5" rx="8" fill="#8aab99"/><text x="544.4" y="219.5" text-anchor="middle" fill="#ffffff" font-size="11" font-family="Segoe UI, Arial, sans-serif">0.53</text><rect x="566.7" y="185.0" width="42.6" height="55.5" rx="8" fill="#8bac99"/><text x="589.0" y="219.5" text-anchor="middle" fill="#ffffff" font-size="11" font-family="Segoe UI, Arial, sans-serif">0.52</text><rect x="611.2" y="185.0" width="42.6" height="55.5" rx="8" fill="#8cac9a"/><text x="633.5" y="219.5" text-anchor="middle" fill="#ffffff" font-size="11" font-family="Segoe UI, Arial, sans-serif">0.52</text><rect x="655.8" y="185.0" width="42.6" height="55.5" rx="8" fill="#8cac9a"/><text x="678.1" y="219.5" text-anchor="middle" fill="#ffffff" font-size="11" font-family="Segoe UI, Arial, sans-serif">0.52</text><rect x="700.4" y="185.0" width="42.6" height="55.5" rx="8" fill="#8cac9a"/><text x="722.7" y="219.5" text-anchor="middle" fill="#ffffff" font-size="11" font-family="Segoe UI, Arial, sans-serif">0.52</text><rect x="745.0" y="185.0" width="42.6" height="55.5" rx="8" fill="#8dac9a"/><text x="767.3" y="219.5" text-anchor="middle" fill="#ffffff" font-size="11" font-family="Segoe UI, Arial, sans-serif">0.52</text><rect x="789.6" y="185.0" width="42.6" height="55.5" rx="8" fill="#8dac9a"/><text x="811.9" y="219.5" text-anchor="middle" fill="#ffffff" font-size="11" font-family="Segoe UI, Arial, sans-serif">0.52</text><rect x="834.2" y="185.0" width="42.6" height="55.5" rx="8" fill="#8cac9a"/><text x="856.5" y="219.5" text-anchor="middle" fill="#ffffff" font-size="11" font-family="Segoe UI, Arial, sans-serif">0.52</text><rect x="878.8" y="185.0" width="42.6" height="55.5" rx="8" fill="#8cac9a"/><text x="901.0" y="219.5" text-anchor="middle" fill="#ffffff" font-size="11" font-family="Segoe UI, Arial, sans-serif">0.52</text><rect x="923.3" y="185.0" width="42.6" height="55.5" rx="8" fill="#8cac9a"/><text x="945.6" y="219.5" text-anchor="middle" fill="#ffffff" font-size="11" font-family="Segoe UI, Arial, sans-serif">0.52</text><rect x="967.9" y="185.0" width="42.6" height="55.5" rx="8" fill="#8bac99"/><text x="990.2" y="219.5" text-anchor="middle" fill="#ffffff" font-size="11" font-family="Segoe UI, Arial, sans-serif">0.52</text><rect x="1012.5" y="185.0" width="42.6" height="55.5" rx="8" fill="#8aab99"/><text x="1034.8" y="219.5" text-anchor="middle" fill="#ffffff" font-size="11" font-family="Segoe UI, Arial, sans-serif">0.53</text><rect x="1057.1" y="185.0" width="42.6" height="55.5" rx="8" fill="#8aab99"/><text x="1079.4" y="219.5" text-anchor="middle" fill="#ffffff" font-size="11" font-family="Segoe UI, Arial, sans-serif">0.53</text><rect x="1101.7" y="185.0" width="42.6" height="55.5" rx="8" fill="#89ab98"/><text x="1124.0" y="219.5" text-anchor="middle" fill="#ffffff" font-size="11" font-family="Segoe UI, Arial, sans-serif">0.53</text><rect x="1146.2" y="185.0" width="42.6" height="55.5" rx="8" fill="#89ab98"/><text x="1168.5" y="219.5" text-anchor="middle" fill="#ffffff" font-size="11" font-family="Segoe UI, Arial, sans-serif">0.53</text><rect x="1190.8" y="185.0" width="42.6" height="55.5" rx="8" fill="#89ab98"/><text x="1213.1" y="219.5" text-anchor="middle" fill="#ffffff" font-size="11" font-family="Segoe UI, Arial, sans-serif">0.53</text><rect x="1235.4" y="185.0" width="42.6" height="55.5" rx="8" fill="#89ab98"/><text x="1257.7" y="219.5" text-anchor="middle" fill="#ffffff" font-size="11" font-family="Segoe UI, Arial, sans-serif">0.53</text><text x="198" y="279.9" text-anchor="end" fill="#2a2623" font-size="12" font-family="Segoe UI, Arial, sans-serif">12 h</text><rect x="210.0" y="242.5" width="42.6" height="55.5" rx="8" fill="#86a996"/><text x="232.3" y="277.0" text-anchor="middle" fill="#ffffff" font-size="11" font-family="Segoe UI, Arial, sans-serif">0.55</text><rect x="254.6" y="242.5" width="42.6" height="55.5" rx="8" fill="#87aa97"/><text x="276.9" y="277.0" text-anchor="middle" fill="#ffffff" font-size="11" font-family="Segoe UI, Arial, sans-serif">0.55</text><rect x="299.2" y="242.5" width="42.6" height="55.5" rx="8" fill="#87aa97"/><text x="321.5" y="277.0" text-anchor="middle" fill="#ffffff" font-size="11" font-family="Segoe UI, Arial, sans-serif">0.54</text><rect x="343.8" y="242.5" width="42.6" height="55.5" rx="8" fill="#88aa98"/><text x="366.0" y="277.0" text-anchor="middle" fill="#ffffff" font-size="11" font-family="Segoe UI, Arial, sans-serif">0.54</text><rect x="388.3" y="242.5" width="42.6" height="55.5" rx="8" fill="#89ab98"/><text x="410.6" y="277.0" text-anchor="middle" fill="#ffffff" font-size="11" font-family="Segoe UI, Arial, sans-serif">0.54</text><rect x="432.9" y="242.5" width="42.6" height="55.5" rx="8" fill="#89ab98"/><text x="455.2" y="277.0" text-anchor="middle" fill="#ffffff" font-size="11" font-family="Segoe UI, Arial, sans-serif">0.53</text><rect x="477.5" y="242.5" width="42.6" height="55.5" rx="8" fill="#8aab98"/><text x="499.8" y="277.0" text-anchor="middle" fill="#ffffff" font-size="11" font-family="Segoe UI, Arial, sans-serif">0.53</text><rect x="522.1" y="242.5" width="42.6" height="55.5" rx="8" fill="#8aab99"/><text x="544.4" y="277.0" text-anchor="middle" fill="#ffffff" font-size="11" font-family="Segoe UI, Arial, sans-serif">0.53</text><rect x="566.7" y="242.5" width="42.6" height="55.5" rx="8" fill="#8aab99"/><text x="589.0" y="277.0" text-anchor="middle" fill="#ffffff" font-size="11" font-family="Segoe UI, Arial, sans-serif">0.53</text><rect x="611.2" y="242.5" width="42.6" height="55.5" rx="8" fill="#8aab99"/><text x="633.5" y="277.0" text-anchor="middle" fill="#ffffff" font-size="11" font-family="Segoe UI, Arial, sans-serif">0.53</text><rect x="655.8" y="242.5" width="42.6" height="55.5" rx="8" fill="#8aab99"/><text x="678.1" y="277.0" text-anchor="middle" fill="#ffffff" font-size="11" font-family="Segoe UI, Arial, sans-serif">0.53</text><rect x="700.4" y="242.5" width="42.6" height="55.5" rx="8" fill="#8aab99"/><text x="722.7" y="277.0" text-anchor="middle" fill="#ffffff" font-size="11" font-family="Segoe UI, Arial, sans-serif">0.53</text><rect x="745.0" y="242.5" width="42.6" height="55.5" rx="8" fill="#8aab99"/><text x="767.3" y="277.0" text-anchor="middle" fill="#ffffff" font-size="11" font-family="Segoe UI, Arial, sans-serif">0.53</text><rect x="789.6" y="242.5" width="42.6" height="55.5" rx="8" fill="#8aab98"/><text x="811.9" y="277.0" text-anchor="middle" fill="#ffffff" font-size="11" font-family="Segoe UI, Arial, sans-serif">0.53</text><rect x="834.2" y="242.5" width="42.6" height="55.5" rx="8" fill="#89ab98"/><text x="856.5" y="277.0" text-anchor="middle" fill="#ffffff" font-size="11" font-family="Segoe UI, Arial, sans-serif">0.53</text><rect x="878.8" y="242.5" width="42.6" height="55.5" rx="8" fill="#89ab98"/><text x="901.0" y="277.0" text-anchor="middle" fill="#ffffff" font-size="11" font-family="Segoe UI, Arial, sans-serif">0.53</text><rect x="923.3" y="242.5" width="42.6" height="55.5" rx="8" fill="#89ab98"/><text x="945.6" y="277.0" text-anchor="middle" fill="#ffffff" font-size="11" font-family="Segoe UI, Arial, sans-serif">0.54</text><rect x="967.9" y="242.5" width="42.6" height="55.5" rx="8" fill="#88aa98"/><text x="990.2" y="277.0" text-anchor="middle" fill="#ffffff" font-size="11" font-family="Segoe UI, Arial, sans-serif">0.54</text><rect x="1012.5" y="242.5" width="42.6" height="55.5" rx="8" fill="#88aa97"/><text x="1034.8" y="277.0" text-anchor="middle" fill="#ffffff" font-size="11" font-family="Segoe UI, Arial, sans-serif">0.54</text><rect x="1057.1" y="242.5" width="42.6" height="55.5" rx="8" fill="#88aa97"/><text x="1079.4" y="277.0" text-anchor="middle" fill="#ffffff" font-size="11" font-family="Segoe UI, Arial, sans-serif">0.54</text><rect x="1101.7" y="242.5" width="42.6" height="55.5" rx="8" fill="#88aa97"/><text x="1124.0" y="277.0" text-anchor="middle" fill="#ffffff" font-size="11" font-family="Segoe UI, Arial, sans-serif">0.54</text><rect x="1146.2" y="242.5" width="42.6" height="55.5" rx="8" fill="#88aa97"/><text x="1168.5" y="277.0" text-anchor="middle" fill="#ffffff" font-size="11" font-family="Segoe UI, Arial, sans-serif">0.54</text><rect x="1190.8" y="242.5" width="42.6" height="55.5" rx="8" fill="#88aa97"/><text x="1213.1" y="277.0" text-anchor="middle" fill="#ffffff" font-size="11" font-family="Segoe UI, Arial, sans-serif">0.54</text><rect x="1235.4" y="242.5" width="42.6" height="55.5" rx="8" fill="#88aa97"/><text x="1257.7" y="277.0" text-anchor="middle" fill="#ffffff" font-size="11" font-family="Segoe UI, Arial, sans-serif">0.54</text><text x="198" y="337.4" text-anchor="end" fill="#2a2623" font-size="12" font-family="Segoe UI, Arial, sans-serif">24 h</text><rect x="210.0" y="300.0" width="42.6" height="55.5" rx="8" fill="#85a996"/><text x="232.3" y="334.5" text-anchor="middle" fill="#ffffff" font-size="11" font-family="Segoe UI, Arial, sans-serif">0.55</text><rect x="254.6" y="300.0" width="42.6" height="55.5" rx="8" fill="#85a996"/><text x="276.9" y="334.5" text-anchor="middle" fill="#ffffff" font-size="11" font-family="Segoe UI, Arial, sans-serif">0.55</text><rect x="299.2" y="300.0" width="42.6" height="55.5" rx="8" fill="#86a996"/><text x="321.5" y="334.5" text-anchor="middle" fill="#ffffff" font-size="11" font-family="Segoe UI, Arial, sans-serif">0.55</text><rect x="343.8" y="300.0" width="42.6" height="55.5" rx="8" fill="#86a996"/><text x="366.0" y="334.5" text-anchor="middle" fill="#ffffff" font-size="11" font-family="Segoe UI, Arial, sans-serif">0.55</text><rect x="388.3" y="300.0" width="42.6" height="55.5" rx="8" fill="#86a996"/><text x="410.6" y="334.5" text-anchor="middle" fill="#ffffff" font-size="11" font-family="Segoe UI, Arial, sans-serif">0.55</text><rect x="432.9" y="300.0" width="42.6" height="55.5" rx="8" fill="#86a996"/><text x="455.2" y="334.5" text-anchor="middle" fill="#ffffff" font-size="11" font-family="Segoe UI, Arial, sans-serif">0.55</text><rect x="477.5" y="300.0" width="42.6" height="55.5" rx="8" fill="#86a996"/><text x="499.8" y="334.5" text-anchor="middle" fill="#ffffff" font-size="11" font-family="Segoe UI, Arial, sans-serif">0.55</text><rect x="522.1" y="300.0" width="42.6" height="55.5" rx="8" fill="#86a996"/><text x="544.4" y="334.5" text-anchor="middle" fill="#ffffff" font-size="11" font-family="Segoe UI, Arial, sans-serif">0.55</text><rect x="566.7" y="300.0" width="42.6" height="55.5" rx="8" fill="#86a996"/><text x="589.0" y="334.5" text-anchor="middle" fill="#ffffff" font-size="11" font-family="Segoe UI, Arial, sans-serif">0.55</text><rect x="611.2" y="300.0" width="42.6" height="55.5" rx="8" fill="#86a996"/><text x="633.5" y="334.5" text-anchor="middle" fill="#ffffff" font-size="11" font-family="Segoe UI, Arial, sans-serif">0.55</text><rect x="655.8" y="300.0" width="42.6" height="55.5" rx="8" fill="#86a996"/><text x="678.1" y="334.5" text-anchor="middle" fill="#ffffff" font-size="11" font-family="Segoe UI, Arial, sans-serif">0.55</text><rect x="700.4" y="300.0" width="42.6" height="55.5" rx="8" fill="#86a996"/><text x="722.7" y="334.5" text-anchor="middle" fill="#ffffff" font-size="11" font-family="Segoe UI, Arial, sans-serif">0.55</text><rect x="745.0" y="300.0" width="42.6" height="55.5" rx="8" fill="#86a996"/><text x="767.3" y="334.5" text-anchor="middle" fill="#ffffff" font-size="11" font-family="Segoe UI, Arial, sans-serif">0.55</text><rect x="789.6" y="300.0" width="42.6" height="55.5" rx="8" fill="#86a996"/><text x="811.9" y="334.5" text-anchor="middle" fill="#ffffff" font-size="11" font-family="Segoe UI, Arial, sans-serif">0.55</text><rect x="834.2" y="300.0" width="42.6" height="55.5" rx="8" fill="#86a996"/><text x="856.5" y="334.5" text-anchor="middle" fill="#ffffff" font-size="11" font-family="Segoe UI, Arial, sans-serif">0.55</text><rect x="878.8" y="300.0" width="42.6" height="55.5" rx="8" fill="#85a996"/><text x="901.0" y="334.5" text-anchor="middle" fill="#ffffff" font-size="11" font-family="Segoe UI, Arial, sans-serif">0.55</text><rect x="923.3" y="300.0" width="42.6" height="55.5" rx="8" fill="#85a996"/><text x="945.6" y="334.5" text-anchor="middle" fill="#ffffff" font-size="11" font-family="Segoe UI, Arial, sans-serif">0.55</text><rect x="967.9" y="300.0" width="42.6" height="55.5" rx="8" fill="#85a996"/><text x="990.2" y="334.5" text-anchor="middle" fill="#ffffff" font-size="11" font-family="Segoe UI, Arial, sans-serif">0.55</text><rect x="1012.5" y="300.0" width="42.6" height="55.5" rx="8" fill="#85a996"/><text x="1034.8" y="334.5" text-anchor="middle" fill="#ffffff" font-size="11" font-family="Segoe UI, Arial, sans-serif">0.55</text><rect x="1057.1" y="300.0" width="42.6" height="55.5" rx="8" fill="#85a996"/><text x="1079.4" y="334.5" text-anchor="middle" fill="#ffffff" font-size="11" font-family="Segoe UI, Arial, sans-serif">0.55</text><rect x="1101.7" y="300.0" width="42.6" height="55.5" rx="8" fill="#85a996"/><text x="1124.0" y="334.5" text-anchor="middle" fill="#ffffff" font-size="11" font-family="Segoe UI, Arial, sans-serif">0.56</text><rect x="1146.2" y="300.0" width="42.6" height="55.5" rx="8" fill="#84a995"/><text x="1168.5" y="334.5" text-anchor="middle" fill="#ffffff" font-size="11" font-family="Segoe UI, Arial, sans-serif">0.56</text><rect x="1190.8" y="300.0" width="42.6" height="55.5" rx="8" fill="#84a995"/><text x="1213.1" y="334.5" text-anchor="middle" fill="#ffffff" font-size="11" font-family="Segoe UI, Arial, sans-serif">0.56</text><rect x="1235.4" y="300.0" width="42.6" height="55.5" rx="8" fill="#84a995"/><text x="1257.7" y="334.5" text-anchor="middle" fill="#ffffff" font-size="11" font-family="Segoe UI, Arial, sans-serif">0.56</text><text x="198" y="394.9" text-anchor="end" fill="#2a2623" font-size="12" font-family="Segoe UI, Arial, sans-serif">36 h</text><rect x="210.0" y="357.5" width="42.6" height="55.5" rx="8" fill="#83a894"/><text x="232.3" y="392.0" text-anchor="middle" fill="#ffffff" font-size="11" font-family="Segoe UI, Arial, sans-serif">0.56</text><rect x="254.6" y="357.5" width="42.6" height="55.5" rx="8" fill="#83a895"/><text x="276.9" y="392.0" text-anchor="middle" fill="#ffffff" font-size="11" font-family="Segoe UI, Arial, sans-serif">0.56</text><rect x="299.2" y="357.5" width="42.6" height="55.5" rx="8" fill="#83a895"/><text x="321.5" y="392.0" text-anchor="middle" fill="#ffffff" font-size="11" font-family="Segoe UI, Arial, sans-serif">0.56</text><rect x="343.8" y="357.5" width="42.6" height="55.5" rx="8" fill="#83a895"/><text x="366.0" y="392.0" text-anchor="middle" fill="#ffffff" font-size="11" font-family="Segoe UI, Arial, sans-serif">0.56</text><rect x="388.3" y="357.5" width="42.6" height="55.5" rx="8" fill="#83a895"/><text x="410.6" y="392.0" text-anchor="middle" fill="#ffffff" font-size="11" font-family="Segoe UI, Arial, sans-serif">0.56</text><rect x="432.9" y="357.5" width="42.6" height="55.5" rx="8" fill="#83a895"/><text x="455.2" y="392.0" text-anchor="middle" fill="#ffffff" font-size="11" font-family="Segoe UI, Arial, sans-serif">0.56</text><rect x="477.5" y="357.5" width="42.6" height="55.5" rx="8" fill="#83a895"/><text x="499.8" y="392.0" text-anchor="middle" fill="#ffffff" font-size="11" font-family="Segoe UI, Arial, sans-serif">0.56</text><rect x="522.1" y="357.5" width="42.6" height="55.5" rx="8" fill="#83a895"/><text x="544.4" y="392.0" text-anchor="middle" fill="#ffffff" font-size="11" font-family="Segoe UI, Arial, sans-serif">0.56</text><rect x="566.7" y="357.5" width="42.6" height="55.5" rx="8" fill="#83a895"/><text x="589.0" y="392.0" text-anchor="middle" fill="#ffffff" font-size="11" font-family="Segoe UI, Arial, sans-serif">0.56</text><rect x="611.2" y="357.5" width="42.6" height="55.5" rx="8" fill="#83a895"/><text x="633.5" y="392.0" text-anchor="middle" fill="#ffffff" font-size="11" font-family="Segoe UI, Arial, sans-serif">0.56</text><rect x="655.8" y="357.5" width="42.6" height="55.5" rx="8" fill="#83a895"/><text x="678.1" y="392.0" text-anchor="middle" fill="#ffffff" font-size="11" font-family="Segoe UI, Arial, sans-serif">0.56</text><rect x="700.4" y="357.5" width="42.6" height="55.5" rx="8" fill="#83a894"/><text x="722.7" y="392.0" text-anchor="middle" fill="#ffffff" font-size="11" font-family="Segoe UI, Arial, sans-serif">0.57</text><rect x="745.0" y="357.5" width="42.6" height="55.5" rx="8" fill="#82a894"/><text x="767.3" y="392.0" text-anchor="middle" fill="#ffffff" font-size="11" font-family="Segoe UI, Arial, sans-serif">0.57</text><rect x="789.6" y="357.5" width="42.6" height="55.5" rx="8" fill="#82a894"/><text x="811.9" y="392.0" text-anchor="middle" fill="#ffffff" font-size="11" font-family="Segoe UI, Arial, sans-serif">0.57</text><rect x="834.2" y="357.5" width="42.6" height="55.5" rx="8" fill="#82a894"/><text x="856.5" y="392.0" text-anchor="middle" fill="#ffffff" font-size="11" font-family="Segoe UI, Arial, sans-serif">0.57</text><rect x="878.8" y="357.5" width="42.6" height="55.5" rx="8" fill="#82a794"/><text x="901.0" y="392.0" text-anchor="middle" fill="#ffffff" font-size="11" font-family="Segoe UI, Arial, sans-serif">0.57</text><rect x="923.3" y="357.5" width="42.6" height="55.5" rx="8" fill="#82a794"/><text x="945.6" y="392.0" text-anchor="middle" fill="#ffffff" font-size="11" font-family="Segoe UI, Arial, sans-serif">0.57</text><rect x="967.9" y="357.5" width="42.6" height="55.5" rx="8" fill="#81a794"/><text x="990.2" y="392.0" text-anchor="middle" fill="#ffffff" font-size="11" font-family="Segoe UI, Arial, sans-serif">0.57</text><rect x="1012.5" y="357.5" width="42.6" height="55.5" rx="8" fill="#81a794"/><text x="1034.8" y="392.0" text-anchor="middle" fill="#ffffff" font-size="11" font-family="Segoe UI, Arial, sans-serif">0.57</text><rect x="1057.1" y="357.5" width="42.6" height="55.5" rx="8" fill="#81a793"/><text x="1079.4" y="392.0" text-anchor="middle" fill="#ffffff" font-size="11" font-family="Segoe UI, Arial, sans-serif">0.57</text><rect x="1101.7" y="357.5" width="42.6" height="55.5" rx="8" fill="#81a793"/><text x="1124.0" y="392.0" text-anchor="middle" fill="#ffffff" font-size="11" font-family="Segoe UI, Arial, sans-serif">0.58</text><rect x="1146.2" y="357.5" width="42.6" height="55.5" rx="8" fill="#81a793"/><text x="1168.5" y="392.0" text-anchor="middle" fill="#ffffff" font-size="11" font-family="Segoe UI, Arial, sans-serif">0.58</text><rect x="1190.8" y="357.5" width="42.6" height="55.5" rx="8" fill="#80a793"/><text x="1213.1" y="392.0" text-anchor="middle" fill="#ffffff" font-size="11" font-family="Segoe UI, Arial, sans-serif">0.58</text><rect x="1235.4" y="357.5" width="42.6" height="55.5" rx="8" fill="#80a793"/><text x="1257.7" y="392.0" text-anchor="middle" fill="#ffffff" font-size="11" font-family="Segoe UI, Arial, sans-serif">0.58</text><text x="198" y="452.4" text-anchor="end" fill="#2a2623" font-size="12" font-family="Segoe UI, Arial, sans-serif">48 h</text><rect x="210.0" y="415.0" width="42.6" height="55.5" rx="8" fill="#7fa693"/><text x="232.3" y="449.5" text-anchor="middle" fill="#ffffff" font-size="11" font-family="Segoe UI, Arial, sans-serif">0.58</text><rect x="254.6" y="415.0" width="42.6" height="55.5" rx="8" fill="#7fa693"/><text x="276.9" y="449.5" text-anchor="middle" fill="#ffffff" font-size="11" font-family="Segoe UI, Arial, sans-serif">0.58</text><rect x="299.2" y="415.0" width="42.6" height="55.5" rx="8" fill="#7fa693"/><text x="321.5" y="449.5" text-anchor="middle" fill="#ffffff" font-size="11" font-family="Segoe UI, Arial, sans-serif">0.58</text><rect x="343.8" y="415.0" width="42.6" height="55.5" rx="8" fill="#7fa693"/><text x="366.0" y="449.5" text-anchor="middle" fill="#ffffff" font-size="11" font-family="Segoe UI, Arial, sans-serif">0.58</text><rect x="388.3" y="415.0" width="42.6" height="55.5" rx="8" fill="#7fa693"/><text x="410.6" y="449.5" text-anchor="middle" fill="#ffffff" font-size="11" font-family="Segoe UI, Arial, sans-serif">0.58</text><rect x="432.9" y="415.0" width="42.6" height="55.5" rx="8" fill="#7fa692"/><text x="455.2" y="449.5" text-anchor="middle" fill="#ffffff" font-size="11" font-family="Segoe UI, Arial, sans-serif">0.58</text><rect x="477.5" y="415.0" width="42.6" height="55.5" rx="8" fill="#7fa692"/><text x="499.8" y="449.5" text-anchor="middle" fill="#ffffff" font-size="11" font-family="Segoe UI, Arial, sans-serif">0.58</text><rect x="522.1" y="415.0" width="42.6" height="55.5" rx="8" fill="#7fa692"/><text x="544.4" y="449.5" text-anchor="middle" fill="#ffffff" font-size="11" font-family="Segoe UI, Arial, sans-serif">0.58</text><rect x="566.7" y="415.0" width="42.6" height="55.5" rx="8" fill="#7fa692"/><text x="589.0" y="449.5" text-anchor="middle" fill="#ffffff" font-size="11" font-family="Segoe UI, Arial, sans-serif">0.58</text><rect x="611.2" y="415.0" width="42.6" height="55.5" rx="8" fill="#7fa692"/><text x="633.5" y="449.5" text-anchor="middle" fill="#ffffff" font-size="11" font-family="Segoe UI, Arial, sans-serif">0.58</text><rect x="655.8" y="415.0" width="42.6" height="55.5" rx="8" fill="#7fa692"/><text x="678.1" y="449.5" text-anchor="middle" fill="#ffffff" font-size="11" font-family="Segoe UI, Arial, sans-serif">0.58</text><rect x="700.4" y="415.0" width="42.6" height="55.5" rx="8" fill="#7fa692"/><text x="722.7" y="449.5" text-anchor="middle" fill="#ffffff" font-size="11" font-family="Segoe UI, Arial, sans-serif">0.59</text><rect x="745.0" y="415.0" width="42.6" height="55.5" rx="8" fill="#7ea692"/><text x="767.3" y="449.5" text-anchor="middle" fill="#ffffff" font-size="11" font-family="Segoe UI, Arial, sans-serif">0.59</text><rect x="789.6" y="415.0" width="42.6" height="55.5" rx="8" fill="#7ea692"/><text x="811.9" y="449.5" text-anchor="middle" fill="#ffffff" font-size="11" font-family="Segoe UI, Arial, sans-serif">0.59</text><rect x="834.2" y="415.0" width="42.6" height="55.5" rx="8" fill="#7ea692"/><text x="856.5" y="449.5" text-anchor="middle" fill="#ffffff" font-size="11" font-family="Segoe UI, Arial, sans-serif">0.59</text><rect x="878.8" y="415.0" width="42.6" height="55.5" rx="8" fill="#7ea692"/><text x="901.0" y="449.5" text-anchor="middle" fill="#ffffff" font-size="11" font-family="Segoe UI, Arial, sans-serif">0.59</text><rect x="923.3" y="415.0" width="42.6" height="55.5" rx="8" fill="#7ea692"/><text x="945.6" y="449.5" text-anchor="middle" fill="#ffffff" font-size="11" font-family="Segoe UI, Arial, sans-serif">0.59</text><rect x="967.9" y="415.0" width="42.6" height="55.5" rx="8" fill="#7da591"/><text x="990.2" y="449.5" text-anchor="middle" fill="#ffffff" font-size="11" font-family="Segoe UI, Arial, sans-serif">0.59</text><rect x="1012.5" y="415.0" width="42.6" height="55.5" rx="8" fill="#7da591"/><text x="1034.8" y="449.5" text-anchor="middle" fill="#ffffff" font-size="11" font-family="Segoe UI, Arial, sans-serif">0.59</text><rect x="1057.1" y="415.0" width="42.6" height="55.5" rx="8" fill="#7da591"/><text x="1079.4" y="449.5" text-anchor="middle" fill="#ffffff" font-size="11" font-family="Segoe UI, Arial, sans-serif">0.59</text><rect x="1101.7" y="415.0" width="42.6" height="55.5" rx="8" fill="#7da591"/><text x="1124.0" y="449.5" text-anchor="middle" fill="#ffffff" font-size="11" font-family="Segoe UI, Arial, sans-serif">0.59</text><rect x="1146.2" y="415.0" width="42.6" height="55.5" rx="8" fill="#7da591"/><text x="1168.5" y="449.5" text-anchor="middle" fill="#ffffff" font-size="11" font-family="Segoe UI, Arial, sans-serif">0.60</text><rect x="1190.8" y="415.0" width="42.6" height="55.5" rx="8" fill="#7ca591"/><text x="1213.1" y="449.5" text-anchor="middle" fill="#ffffff" font-size="11" font-family="Segoe UI, Arial, sans-serif">0.60</text><rect x="1235.4" y="415.0" width="42.6" height="55.5" rx="8" fill="#7ca591"/><text x="1257.7" y="449.5" text-anchor="middle" fill="#ffffff" font-size="11" font-family="Segoe UI, Arial, sans-serif">0.60</text><text x="198" y="509.9" text-anchor="end" fill="#2a2623" font-size="12" font-family="Segoe UI, Arial, sans-serif">72 h</text><rect x="210.0" y="472.5" width="42.6" height="55.5" rx="8" fill="#79a38f"/><text x="232.3" y="507.0" text-anchor="middle" fill="#ffffff" font-size="11" font-family="Segoe UI, Arial, sans-serif">0.61</text><rect x="254.6" y="472.5" width="42.6" height="55.5" rx="8" fill="#79a38f"/><text x="276.9" y="507.0" text-anchor="middle" fill="#ffffff" font-size="11" font-family="Segoe UI, Arial, sans-serif">0.62</text><rect x="299.2" y="472.5" width="42.6" height="55.5" rx="8" fill="#78a38f"/><text x="321.5" y="507.0" text-anchor="middle" fill="#ffffff" font-size="11" font-family="Segoe UI, Arial, sans-serif">0.62</text><rect x="343.8" y="472.5" width="42.6" height="55.5" rx="8" fill="#78a38f"/><text x="366.0" y="507.0" text-anchor="middle" fill="#ffffff" font-size="11" font-family="Segoe UI, Arial, sans-serif">0.62</text><rect x="388.3" y="472.5" width="42.6" height="55.5" rx="8" fill="#78a38e"/><text x="410.6" y="507.0" text-anchor="middle" fill="#ffffff" font-size="11" font-family="Segoe UI, Arial, sans-serif">0.62</text><rect x="432.9" y="472.5" width="42.6" height="55.5" rx="8" fill="#78a38e"/><text x="455.2" y="507.0" text-anchor="middle" fill="#ffffff" font-size="11" font-family="Segoe UI, Arial, sans-serif">0.62</text><rect x="477.5" y="472.5" width="42.6" height="55.5" rx="8" fill="#78a38e"/><text x="499.8" y="507.0" text-anchor="middle" fill="#ffffff" font-size="11" font-family="Segoe UI, Arial, sans-serif">0.62</text><rect x="522.1" y="472.5" width="42.6" height="55.5" rx="8" fill="#78a38e"/><text x="544.4" y="507.0" text-anchor="middle" fill="#ffffff" font-size="11" font-family="Segoe UI, Arial, sans-serif">0.62</text><rect x="566.7" y="472.5" width="42.6" height="55.5" rx="8" fill="#78a38e"/><text x="589.0" y="507.0" text-anchor="middle" fill="#ffffff" font-size="11" font-family="Segoe UI, Arial, sans-serif">0.62</text><rect x="611.2" y="472.5" width="42.6" height="55.5" rx="8" fill="#78a38e"/><text x="633.5" y="507.0" text-anchor="middle" fill="#ffffff" font-size="11" font-family="Segoe UI, Arial, sans-serif">0.62</text><rect x="655.8" y="472.5" width="42.6" height="55.5" rx="8" fill="#77a38e"/><text x="678.1" y="507.0" text-anchor="middle" fill="#ffffff" font-size="11" font-family="Segoe UI, Arial, sans-serif">0.62</text><rect x="700.4" y="472.5" width="42.6" height="55.5" rx="8" fill="#77a38e"/><text x="722.7" y="507.0" text-anchor="middle" fill="#ffffff" font-size="11" font-family="Segoe UI, Arial, sans-serif">0.62</text><rect x="745.0" y="472.5" width="42.6" height="55.5" rx="8" fill="#77a28e"/><text x="767.3" y="507.0" text-anchor="middle" fill="#ffffff" font-size="11" font-family="Segoe UI, Arial, sans-serif">0.62</text><rect x="789.6" y="472.5" width="42.6" height="55.5" rx="8" fill="#77a28e"/><text x="811.9" y="507.0" text-anchor="middle" fill="#ffffff" font-size="11" font-family="Segoe UI, Arial, sans-serif">0.62</text><rect x="834.2" y="472.5" width="42.6" height="55.5" rx="8" fill="#77a28e"/><text x="856.5" y="507.0" text-anchor="middle" fill="#ffffff" font-size="11" font-family="Segoe UI, Arial, sans-serif">0.62</text><rect x="878.8" y="472.5" width="42.6" height="55.5" rx="8" fill="#76a28d"/><text x="901.0" y="507.0" text-anchor="middle" fill="#ffffff" font-size="11" font-family="Segoe UI, Arial, sans-serif">0.63</text><rect x="923.3" y="472.5" width="42.6" height="55.5" rx="8" fill="#76a28d"/><text x="945.6" y="507.0" text-anchor="middle" fill="#ffffff" font-size="11" font-family="Segoe UI, Arial, sans-serif">0.63</text><rect x="967.9" y="472.5" width="42.6" height="55.5" rx="8" fill="#76a28d"/><text x="990.2" y="507.0" text-anchor="middle" fill="#ffffff" font-size="11" font-family="Segoe UI, Arial, sans-serif">0.63</text><rect x="1012.5" y="472.5" width="42.6" height="55.5" rx="8" fill="#76a28d"/><text x="1034.8" y="507.0" text-anchor="middle" fill="#ffffff" font-size="11" font-family="Segoe UI, Arial, sans-serif">0.63</text><rect x="1057.1" y="472.5" width="42.6" height="55.5" rx="8" fill="#75a28d"/><text x="1079.4" y="507.0" text-anchor="middle" fill="#ffffff" font-size="11" font-family="Segoe UI, Arial, sans-serif">0.63</text><rect x="1101.7" y="472.5" width="42.6" height="55.5" rx="8" fill="#75a28d"/><text x="1124.0" y="507.0" text-anchor="middle" fill="#ffffff" font-size="11" font-family="Segoe UI, Arial, sans-serif">0.63</text><rect x="1146.2" y="472.5" width="42.6" height="55.5" rx="8" fill="#75a28d"/><text x="1168.5" y="507.0" text-anchor="middle" fill="#ffffff" font-size="11" font-family="Segoe UI, Arial, sans-serif">0.63</text><rect x="1190.8" y="472.5" width="42.6" height="55.5" rx="8" fill="#75a18c"/><text x="1213.1" y="507.0" text-anchor="middle" fill="#ffffff" font-size="11" font-family="Segoe UI, Arial, sans-serif">0.63</text><rect x="1235.4" y="472.5" width="42.6" height="55.5" rx="8" fill="#74a18c"/><text x="1257.7" y="507.0" text-anchor="middle" fill="#ffffff" font-size="11" font-family="Segoe UI, Arial, sans-serif">0.64</text><text x="232.3" y="546.0" text-anchor="end" fill="#2a2623" font-size="12" font-family="Segoe UI, Arial, sans-serif" transform="rotate(-40 232.3 546.0)">h+1</text><text x="276.9" y="546.0" text-anchor="end" fill="#2a2623" font-size="12" font-family="Segoe UI, Arial, sans-serif" transform="rotate(-40 276.9 546.0)">h+2</text><text x="321.5" y="546.0" text-anchor="end" fill="#2a2623" font-size="12" font-family="Segoe UI, Arial, sans-serif" transform="rotate(-40 321.5 546.0)">h+3</text><text x="366.0" y="546.0" text-anchor="end" fill="#2a2623" font-size="12" font-family="Segoe UI, Arial, sans-serif" transform="rotate(-40 366.0 546.0)">h+4</text><text x="410.6" y="546.0" text-anchor="end" fill="#2a2623" font-size="12" font-family="Segoe UI, Arial, sans-serif" transform="rotate(-40 410.6 546.0)">h+5</text><text x="455.2" y="546.0" text-anchor="end" fill="#2a2623" font-size="12" font-family="Segoe UI, Arial, sans-serif" transform="rotate(-40 455.2 546.0)">h+6</text><text x="499.8" y="546.0" text-anchor="end" fill="#2a2623" font-size="12" font-family="Segoe UI, Arial, sans-serif" transform="rotate(-40 499.8 546.0)">h+7</text><text x="544.4" y="546.0" text-anchor="end" fill="#2a2623" font-size="12" font-family="Segoe UI, Arial, sans-serif" transform="rotate(-40 544.4 546.0)">h+8</text><text x="589.0" y="546.0" text-anchor="end" fill="#2a2623" font-size="12" font-family="Segoe UI, Arial, sans-serif" transform="rotate(-40 589.0 546.0)">h+9</text><text x="633.5" y="546.0" text-anchor="end" fill="#2a2623" font-size="12" font-family="Segoe UI, Arial, sans-serif" transform="rotate(-40 633.5 546.0)">h+10</text><text x="678.1" y="546.0" text-anchor="end" fill="#2a2623" font-size="12" font-family="Segoe UI, Arial, sans-serif" transform="rotate(-40 678.1 546.0)">h+11</text><text x="722.7" y="546.0" text-anchor="end" fill="#2a2623" font-size="12" font-family="Segoe UI, Arial, sans-serif" transform="rotate(-40 722.7 546.0)">h+12</text><text x="767.3" y="546.0" text-anchor="end" fill="#2a2623" font-size="12" font-family="Segoe UI, Arial, sans-serif" transform="rotate(-40 767.3 546.0)">h+13</text><text x="811.9" y="546.0" text-anchor="end" fill="#2a2623" font-size="12" font-family="Segoe UI, Arial, sans-serif" transform="rotate(-40 811.9 546.0)">h+14</text><text x="856.5" y="546.0" text-anchor="end" fill="#2a2623" font-size="12" font-family="Segoe UI, Arial, sans-serif" transform="rotate(-40 856.5 546.0)">h+15</text><text x="901.0" y="546.0" text-anchor="end" fill="#2a2623" font-size="12" font-family="Segoe UI, Arial, sans-serif" transform="rotate(-40 901.0 546.0)">h+16</text><text x="945.6" y="546.0" text-anchor="end" fill="#2a2623" font-size="12" font-family="Segoe UI, Arial, sans-serif" transform="rotate(-40 945.6 546.0)">h+17</text><text x="990.2" y="546.0" text-anchor="end" fill="#2a2623" font-size="12" font-family="Segoe UI, Arial, sans-serif" transform="rotate(-40 990.2 546.0)">h+18</text><text x="1034.8" y="546.0" text-anchor="end" fill="#2a2623" font-size="12" font-family="Segoe UI, Arial, sans-serif" transform="rotate(-40 1034.8 546.0)">h+19</text><text x="1079.4" y="546.0" text-anchor="end" fill="#2a2623" font-size="12" font-family="Segoe UI, Arial, sans-serif" transform="rotate(-40 1079.4 546.0)">h+20</text><text x="1124.0" y="546.0" text-anchor="end" fill="#2a2623" font-size="12" font-family="Segoe UI, Arial, sans-serif" transform="rotate(-40 1124.0 546.0)">h+21</text><text x="1168.5" y="546.0" text-anchor="end" fill="#2a2623" font-size="12" font-family="Segoe UI, Arial, sans-serif" transform="rotate(-40 1168.5 546.0)">h+22</text><text x="1213.1" y="546.0" text-anchor="end" fill="#2a2623" font-size="12" font-family="Segoe UI, Arial, sans-serif" transform="rotate(-40 1213.1 546.0)">h+23</text><text x="1257.7" y="546.0" text-anchor="end" fill="#2a2623" font-size="12" font-family="Segoe UI, Arial, sans-serif" transform="rotate(-40 1257.7 546.0)">h+24</text></svg>