<svg xmlns="http://www.w3.org/2000/svg" width="1250" height="680" viewBox="0 0 1250 680"><rect width="1250" height="680" fill="#fffdf9"/><title>Top Feature Correlations To The Label</title><rect x="300" y="65" width="910" height="545" rx="18" fill="#fff7ed"/><text x="625.0" y="34" text-anchor="middle" fill="#2a2623" font-size="24" font-family="Segoe UI, Arial, sans-serif">Top Feature Correlations To The Label</text><text x="625.0" y="664.0" text-anchor="middle" fill="#77685c" font-size="14" font-family="Segoe UI, Arial, sans-serif">Pearson correlation</text><line x1="300.0" x2="300.0" y1="65" y2="610" stroke="#dfcfbb" stroke-width="1"/><text x="300.0" y="634.0" text-anchor="middle" fill="#77685c" font-size="12" font-family="Segoe UI, Arial, sans-serif">-0.79</text><line x1="527.5" x2="527.5" y1="65" y2="610" stroke="#dfcfbb" stroke-width="1"/><text x="527.5" y="634.0" text-anchor="middle" fill="#77685c" font-size="12" font-family="Segoe UI, Arial, sans-serif">-0.40</text><line x1="755.0" x2="755.0" y1="65" y2="610" stroke="#dfcfbb" stroke-width="1"/><text x="755.0" y="634.0" text-anchor="middle" fill="#77685c" font-size="12" font-family="Segoe UI, Arial, sans-serif">0.00</text><line x1="982.5" x2="982.5" y1="65" y2="610" stroke="#dfcfbb" stroke-width="1"/><text x="982.5" y="634.0" text-anchor="middle" fill="#77685c" font-size="12" font-family="Segoe UI, Arial, sans-serif">0.40</text><line x1="1210.0" x2="1210.0" y1="65" y2="610" stroke="#dfcfbb" stroke-width="1"/><text x="1210.0" y="634.0" text-anchor="middle" fill="#77685c" font-size="12" font-family="Segoe UI, Arial, sans-serif">0.79</text><line x1="755.0" x2="755.0" y1="65" y2="610" stroke="#2a2623" stroke-width="1.5"/><rect x="755.0" y="70.5" width="455.0" height="32.7" rx="8" fill="#2a7f62"/><text x="288" y="92.2" text-anchor="end" fill="#2a2623" font-size="12" font-family="Segoe UI, Arial, sans-serif">active_container_count</text><text x="1218.0" y="92.2" text-anchor="start" fill="#77685c" font-size="12" font-family="Segoe UI, Arial, sans-serif">0.79</text><rect x="412.3" y="115.9" width="342.7" height="32.7" rx="8" fill="#b85042"/><text x="288" y="137.7" text-anchor="end" fill="#2a2623" font-size="12" font-family="Segoe UI, Arial, sans-serif">share_stack_tier_1</text><text x="763.0" y="137.7" text-anchor="start" fill="#77685c" font-size="12" font-family="Segoe UI, Arial, sans-serif">-0.60</text><rect x="755.0" y="161.3" width="323.8" height="32.7" rx="8" fill="#2a7f62"/><text x="288" y="183.1" text-anchor="end" fill="#2a2623" font-size="12" font-family="Segoe UI, Arial, sans-serif">mean_stack_tier</text><text x="1086.8" y="183.1" text-anchor="start" fill="#77685c" font-size="12" font-family="Segoe UI, Arial, sans-serif">0.57</text><rect x="755.0" y="206.7" width="278.9" height="32.7" rx="8" fill="#2a7f62"/><text x="288" y="228.5" text-anchor="end" fill="#2a2623" font-size="12" font-family="Segoe UI, Arial, sans-serif">share_stack_tier_3</text><text x="1041.9" y="228.5" text-anchor="start" fill="#77685c" font-size="12" font-family="Segoe UI, Arial, sans-serif">0.49</text><rect x="755.0" y="252.1" width="266.0" height="32.7" rx="8" fill="#2a7f62"/><text x="288" y="273.9" text-anchor="end" fill="#2a2623" font-size="12" font-family="Segoe UI, Arial, sans-serif">share_stack_tier_2</text><text x="1029.0" y="273.9" text-anchor="start" fill="#77685c" font-size="12" font-family="Segoe UI, Arial, sans-serif">0.46</text><rect x="755.0" y="297.5" width="231.9" height="32.7" rx="8" fill="#2a7f62"/><text x="288" y="319.3" text-anchor="end" fill="#2a2623" font-size="12" font-family="Segoe UI, Arial, sans-serif">mean_ambient_minus_setpoint_c</text><text x="994.9" y="319.3" text-anchor="start" fill="#77685c" font-size="12" font-family="Segoe UI, Arial, sans-serif">0.41</text><rect x="755.0" y="342.9" width="222.7" height="32.7" rx="8" fill="#2a7f62"/><text x="288" y="364.8" text-anchor="end" fill="#2a2623" font-size="12" font-family="Segoe UI, Arial, sans-serif">mean_temperature_ambient_c</text><text x="985.7" y="364.8" text-anchor="start" fill="#77685c" font-size="12" font-family="Segoe UI, Arial, sans-serif">0.39</text><rect x="755.0" y="388.4" width="216.4" height="32.7" rx="8" fill="#2a7f62"/><text x="288" y="410.2" text-anchor="end" fill="#2a2623" font-size="12" font-family="Segoe UI, Arial, sans-serif">month</text><text x="979.4" y="410.2" text-anchor="start" fill="#77685c" font-size="12" font-family="Segoe UI, Arial, sans-serif">0.38</text><rect x="755.0" y="433.8" width="215.4" height="32.7" rx="8" fill="#2a7f62"/><text x="288" y="455.6" text-anchor="end" fill="#2a2623" font-size="12" font-family="Segoe UI, Arial, sans-serif">mean_return_minus_supply_c</text><text x="978.4" y="455.6" text-anchor="start" fill="#77685c" font-size="12" font-family="Segoe UI, Arial, sans-serif">0.38</text><rect x="755.0" y="479.2" width="213.9" height="32.7" rx="8" fill="#2a7f62"/><text x="288" y="501.0" text-anchor="end" fill="#2a2623" font-size="12" font-family="Segoe UI, Arial, sans-serif">day_of_year</text><text x="976.9" y="501.0" text-anchor="start" fill="#77685c" font-size="12" font-family="Segoe UI, Arial, sans-serif">0.37</text><rect x="755.0" y="524.6" width="196.8" height="32.7" rx="8" fill="#2a7f62"/><text x="288" y="546.4" text-anchor="end" fill="#2a2623" font-size="12" font-family="Segoe UI, Arial, sans-serif">share_hardware_decosiiih</text><text x="959.8" y="546.4" text-anchor="start" fill="#77685c" font-size="12" font-family="Segoe UI, Arial, sans-serif">0.34</text><rect x="755.0" y="570.0" width="188.8" height="32.7" rx="8" fill="#2a7f62"/><text x="288" y="591.8" text-anchor="end" fill="#2a2623" font-size="12" font-family="Segoe UI, Arial, sans-serif">share_hardware_ml5</text><text x="951.8" y="591.8" text-anchor="start" fill="#77685c" font-size="12" font-family="Segoe UI, Arial, sans-serif">0.33</text></svg>