<svg xmlns="http://www.w3.org/2000/svg" width="1320" height="900" viewBox="0 0 1320 900"><rect width="1320" height="900" fill="#fffdf9"/><title>Correlation Matrix For Top Features</title><rect x="210" y="70" width="1070" height="740" rx="18" fill="#fff7ed"/><text x="660.0" y="36" text-anchor="middle" fill="#2a2623" font-size="24" font-family="Segoe UI, Arial, sans-serif">Correlation Matrix For Top Features</text><text x="198" y="107.0" text-anchor="end" fill="#2a2623" font-size="12" font-family="Segoe UI, Arial, sans-serif">active_container_count</text><rect x="210.0" y="70.0" width="80.3" height="54.9" rx="8" fill="#2a7f62"/><text x="251.2" y="104.2" text-anchor="middle" fill="#ffffff" font-size="11" font-family="Segoe UI, Arial, sans-serif">1.00</text><rect x="292.3" y="70.0" width="80.3" height="54.9" rx="8" fill="#c9766a"/><text x="333.5" y="104.2" text-anchor="middle" fill="#ffffff" font-size="11" font-family="Segoe UI, Arial, sans-serif">-0.73</text><rect x="374.6" y="70.0" width="80.3" height="54.9" rx="8" fill="#699c86"/><text x="415.8" y="104.2" text-anchor="middle" fill="#ffffff" font-size="11" font-family="Segoe UI, Arial, sans-serif">0.69</text><rect x="456.9" y="70.0" width="80.3" height="54.9" rx="8" fill="#7ea692"/><text x="498.1" y="104.2" text-anchor="middle" fill="#ffffff" font-size="11" font-family="Segoe UI, Arial, sans-serif">0.59</text><rect x="539.2" y="70.0" width="80.3" height="54.9" rx="8" fill="#7ba490"/><text x="580.4" y="104.2" text-anchor="middle" fill="#ffffff" font-size="11" font-family="Segoe UI, Arial, sans-serif">0.61</text><rect x="621.5" y="70.0" width="80.3" height="54.9" rx="8" fill="#f2d4cc"/><text x="662.7" y="104.2" text-anchor="middle" fill="#2a2623" font-size="11" font-family="Segoe UI, Arial, sans-serif">-0.07</text><rect x="703.8" y="70.0" width="80.3" height="54.9" rx="8" fill="#f1d2ca"/><text x="745.0" y="104.2" text-anchor="middle" fill="#2a2623" font-size="11" font-family="Segoe UI, Arial, sans-serif">-0.08</text><rect x="786.2" y="70.0" width="80.3" height="54.9" rx="8" fill="#bdc3b6"/><text x="827.3" y="104.2" text-anchor="middle" fill="#2a2623" font-size="11" font-family="Segoe UI, Arial, sans-serif">0.28</text><rect x="868.5" y="70.0" width="80.3" height="54.9" rx="8" fill="#f1d1c9"/><text x="909.6" y="104.2" text-anchor="middle" fill="#2a2623" font-size="11" font-family="Segoe UI, Arial, sans-serif">-0.09</text><rect x="950.8" y="70.0" width="80.3" height="54.9" rx="8" fill="#bfc4b7"/><text x="991.9" y="104.2" text-anchor="middle" fill="#2a2623" font-size="11" font-family="Segoe UI, Arial, sans-serif">0.27</text><rect x="1033.1" y="70.0" width="80.3" height="54.9" rx="8" fill="#d7cfc4"/><text x="1074.2" y="104.2" text-anchor="middle" fill="#2a2623" font-size="11" font-family="Segoe UI, Arial, sans-serif">0.15</text><rect x="1115.4" y="70.0" width="80.3" height="54.9" rx="8" fill="#d9d0c6"/><text x="1156.5" y="104.2" text-anchor="middle" fill="#2a2623" font-size="11" font-family="Segoe UI, Arial, sans-serif">0.14</text><rect x="1197.7" y="70.0" width="80.3" height="54.9" rx="8" fill="#54927a"/><text x="1238.8" y="104.2" text-anchor="middle" fill="#ffffff" font-size="11" font-family="Segoe UI, Arial, sans-serif">0.79</text><text x="198" y="163.9" text-anchor="end" fill="#2a2623" font-size="12" font-family="Segoe UI, Arial, sans-serif">share_stack_tier_1</text><rect x="210.0" y="126.9" width="80.3" height="54.9" rx="8" fill="#c9766a"/><text x="251.2" y="161.1" text-anchor="middle" fill="#ffffff" font-size="11" font-family="Segoe UI, Arial, sans-serif">-0.73</text><rect x="292.3" y="126.9" width="80.3" height="54.9" rx="8" fill="#2a7f62"/><text x="333.5" y="161.1" text-anchor="middle" fill="#ffffff" font-size="11" font-family="Segoe UI, Arial, sans-serif">1.00</text><rect x="374.6" y="126.9" width="80.3" height="54.9" rx="8" fill="#ba5446"/><text x="415.8" y="161.1" text-anchor="middle" fill="#ffffff" font-size="11" font-family="Segoe UI, Arial, sans-serif">-0.97</text><rect x="456.9" y="126.9" width="80.3" height="54.9" rx="8" fill="#bf6154"/><text x="498.1" y="161.1" text-anchor="middle" fill="#ffffff" font-size="11" font-family="Segoe UI, Arial, sans-serif">-0.88</text><rect x="539.2" y="126.9" width="80.3" height="54.9" rx="8" fill="#ce8276"/><text x="580.4" y="161.1" text-anchor="middle" fill="#ffffff" font-size="11" font-family="Segoe UI, Arial, sans-serif">-0.65</text><rect x="621.5" y="126.9" width="80.3" height="54.9" rx="8" fill="#e5d5cc"/><text x="662.7" y="161.1" text-anchor="middle" fill="#2a2623" font-size="11" font-family="Segoe UI, Arial, sans-serif">0.09</text><rect x="703.8" y="126.9" width="80.3" height="54.9" rx="8" fill="#e4d5cc"/><text x="745.0" y="161.1" text-anchor="middle" fill="#2a2623" font-size="11" font-family="Segoe UI, Arial, sans-serif">0.09</text><rect x="786.2" y="126.9" width="80.3" height="54.9" rx="8" fill="#dea69c"/><text x="827.3" y="161.1" text-anchor="middle" fill="#2a2623" font-size="11" font-family="Segoe UI, Arial, sans-serif">-0.39</text><rect x="868.5" y="126.9" width="80.3" height="54.9" rx="8" fill="#e8d6ce"/><text x="909.6" y="161.1" text-anchor="middle" fill="#2a2623" font-size="11" font-family="Segoe UI, Arial, sans-serif">0.07</text><rect x="950.8" y="126.9" width="80.3" height="54.9" rx="8" fill="#dea69d"/><text x="991.9" y="161.1" text-anchor="middle" fill="#2a2623" font-size="11" font-family="Segoe UI, Arial, sans-serif">-0.39</text><rect x="1033.1" y="126.9" width="80.3" height="54.9" rx="8" fill="#f5dad2"/><text x="1074.2" y="161.1" text-anchor="middle" fill="#2a2623" font-size="11" font-family="Segoe UI, Arial, sans-serif">-0.02</text><rect x="1115.4" y="126.9" width="80.3" height="54.9" rx="8" fill="#edc9c1"/><text x="1156.5" y="161.1" text-anchor="middle" fill="#2a2623" font-size="11" font-family="Segoe UI, Arial, sans-serif">-0.14</text><rect x="1197.7" y="126.9" width="80.3" height="54.9" rx="8" fill="#d1897d"/><text x="1238.8" y="161.1" text-anchor="middle" fill="#ffffff" font-size="11" font-family="Segoe UI, Arial, sans-serif">-0.60</text><text x="198" y="220.8" text-anchor="end" fill="#2a2623" font-size="12" font-family="Segoe UI, Arial, sans-serif">mean_stack_tier</text><rect x="210.0" y="183.8" width="80.3" height="54.9" rx="8" fill="#699c86"/><text x="251.2" y="218.0" text-anchor="middle" fill="#ffffff" font-size="11" font-family="Segoe UI, Arial, sans-serif">0.69</text><rect x="292.3" y="183.8" width="80.3" height="54.9" rx="8" fill="#ba5446"/><text x="333.5" y="218.0" text-anchor="middle" fill="#ffffff" font-size="11" font-family="Segoe UI, Arial, sans-serif">-0.97</text><rect x="374.6" y="183.8" width="80.3" height="54.9" rx="8" fill="#2a7f62"/><text x="415.8" y="218.0" text-anchor="middle" fill="#ffffff" font-size="11" font-family="Segoe UI, Arial, sans-serif">1.00</text><rect x="456.9" y="183.8" width="80.3" height="54.9" rx="8" fill="#318266"/><text x="498.1" y="218.0" text-anchor="middle" fill="#ffffff" font-size="11" font-family="Segoe UI, Arial, sans-serif">0.96</text><rect x="539.2" y="183.8" width="80.3" height="54.9" rx="8" fill="#91ae9c"/><text x="580.4" y="218.0" text-anchor="middle" fill="#ffffff" font-size="11" font-family="Segoe UI, Arial, sans-serif">0.50</text><rect x="621.5" y="183.8" width="80.3" height="54.9" rx="8" fill="#f0cec7"/><text x="662.7" y="218.0" text-anchor="middle" fill="#2a2623" font-size="11" font-family="Segoe UI, Arial, sans-serif">-0.10</text><rect x="703.8" y="183.8" width="80.3" height="54.9" rx="8" fill="#efcec6"/><text x="745.0" y="218.0" text-anchor="middle" fill="#2a2623" font-size="11" font-family="Segoe UI, Arial, sans-serif">-0.11</text><rect x="786.2" y="183.8" width="80.3" height="54.9" rx="8" fill="#adbbac"/><text x="827.3" y="218.0" text-anchor="middle" fill="#2a2623" font-size="11" font-family="Segoe UI, Arial, sans-serif">0.36</text><rect x="868.5" y="183.8" width="80.3" height="54.9" rx="8" fill="#f0d0c9"/><text x="909.6" y="218.0" text-anchor="middle" fill="#2a2623" font-size="11" font-family="Segoe UI, Arial, sans-serif">-0.09</text><rect x="950.8" y="183.8" width="80.3" height="54.9" rx="8" fill="#aebcad"/><text x="991.9" y="218.0" text-anchor="middle" fill="#2a2623" font-size="11" font-family="Segoe UI, Arial, sans-serif">0.35</text><rect x="1033.1" y="183.8" width="80.3" height="54.9" rx="8" fill="#f6dcd5"/><text x="1074.2" y="218.0" text-anchor="middle" fill="#2a2623" font-size="11" font-family="Segoe UI, Arial, sans-serif">-0.00</text><rect x="1115.4" y="183.8" width="80.3" height="54.9" rx="8" fill="#e0d3c9"/><text x="1156.5" y="218.0" text-anchor="middle" fill="#2a2623" font-size="11" font-family="Segoe UI, Arial, sans-serif">0.11</text><rect x="1197.7" y="183.8" width="80.3" height="54.9" rx="8" fill="#83a894"/><text x="1238.8" y="218.0" text-anchor="middle" fill="#ffffff" font-size="11" font-family="Segoe UI, Arial, sans-serif">0.57</text><text x="198" y="277.8" text-anchor="end" fill="#2a2623" font-size="12" font-family="Segoe UI, Arial, sans-serif">share_stack_tier_3</text><rect x="210.0" y="240.8" width="80.3" height="54.9" rx="8" fill="#7ea692"/><text x="251.2" y="274.9" text-anchor="middle" fill="#ffffff" font-size="11" font-family="Segoe UI, Arial, sans-serif">0.59</text><rect x="292.3" y="240.8" width="80.3" height="54.9" rx="8" fill="#bf6154"/><text x="333.5" y="274.9" text-anchor="middle" fill="#ffffff" font-size="11" font-family="Segoe UI, Arial, sans-serif">-0.88</text><rect x="374.6" y="240.8" width="80.3" height="54.9" rx="8" fill="#318266"/><text x="415.8" y="274.9" text-anchor="middle" fill="#ffffff" font-size="11" font-family="Segoe UI, Arial, sans-serif">0.96</text><rect x="456.9" y="240.8" width="80.3" height="54.9" rx="8" fill="#2a7f62"/><text x="498.1" y="274.9" text-anchor="middle" fill="#ffffff" font-size="11" font-family="Segoe UI, Arial, sans-serif">1.00</text><rect x="539.2" y="240.8" width="80.3" height="54.9" rx="8" fill="#c1c5b8"/><text x="580.4" y="274.9" text-anchor="middle" fill="#2a2623" font-size="11" font-family="Segoe UI, Arial, sans-serif">0.26</text><rect x="621.5" y="240.8" width="80.3" height="54.9" rx="8" fill="#efccc4"/><text x="662.7" y="274.9" text-anchor="middle" fill="#2a2623" font-size="11" font-family="Segoe UI, Arial, sans-serif">-0.12</text><rect x="703.8" y="240.8" width="80.3" height="54.9" rx="8" fill="#eeccc4"/><text x="745.0" y="274.9" text-anchor="middle" fill="#2a2623" font-size="11" font-family="Segoe UI, Arial, sans-serif">-0.12</text><rect x="786.2" y="240.8" width="80.3" height="54.9" rx="8" fill="#b9c1b4"/><text x="827.3" y="274.9" text-anchor="middle" fill="#2a2623" font-size="11" font-family="Segoe UI, Arial, sans-serif">0.30</text><rect x="868.5" y="240.8" width="80.3" height="54.9" rx="8" fill="#f0cfc7"/><text x="909.6" y="274.9" text-anchor="middle" fill="#2a2623" font-size="11" font-family="Segoe UI, Arial, sans-serif">-0.10</text><rect x="950.8" y="240.8" width="80.3" height="54.9" rx="8" fill="#bac1b4"/><text x="991.9" y="274.9" text-anchor="middle" fill="#2a2623" font-size="11" font-family="Segoe UI, Arial, sans-serif">0.29</text><rect x="1033.1" y="240.8" width="80.3" height="54.9" rx="8" fill="#f3d7d0"/><text x="1074.2" y="274.9" text-anchor="middle" fill="#2a2623" font-size="11" font-family="Segoe UI, Arial, sans-serif">-0.04</text><rect x="1115.4" y="240.8" width="80.3" height="54.9" rx="8" fill="#e9d7cf"/><text x="1156.5" y="274.9" text-anchor="middle" fill="#2a2623" font-size="11" font-family="Segoe UI, Arial, sans-serif">0.06</text><rect x="1197.7" y="240.8" width="80.3" height="54.9" rx="8" fill="#93af9e"/><text x="1238.8" y="274.9" text-anchor="middle" fill="#ffffff" font-size="11" font-family="Segoe UI, Arial, sans-serif">0.49</text><text x="198" y="334.7" text-anchor="end" fill="#2a2623" font-size="12" font-family="Segoe UI, Arial, sans-serif">share_stack_tier_2</text><rect x="210.0" y="297.7" width="80.3" height="54.9" rx="8" fill="#7ba490"/><text x="251.2" y="331.8" text-anchor="middle" fill="#ffffff" font-size="11" font-family="Segoe UI, Arial, sans-serif">0.61</text><rect x="292.3" y="297.7" width="80.3" height="54.9" rx="8" fill="#ce8276"/><text x="333.5" y="331.8" text-anchor="middle" fill="#ffffff" font-size="11" font-family="Segoe UI, Arial, sans-serif">-0.65</text><rect x="374.6" y="297.7" width="80.3" height="54.9" rx="8" fill="#91ae9c"/><text x="415.8" y="331.8" text-anchor="middle" fill="#ffffff" font-size="11" font-family="Segoe UI, Arial, sans-serif">0.50</text><rect x="456.9" y="297.7" width="80.3" height="54.9" rx="8" fill="#c1c5b8"/><text x="498.1" y="331.8" text-anchor="middle" fill="#2a2623" font-size="11" font-family="Segoe UI, Arial, sans-serif">0.26</text><rect x="539.2" y="297.7" width="80.3" height="54.9" rx="8" fill="#2a7f62"/><text x="580.4" y="331.8" text-anchor="middle" fill="#ffffff" font-size="11" font-family="Segoe UI, Arial, sans-serif">1.00</text><rect x="621.5" y="297.7" width="80.3" height="54.9" rx="8" fill="#f6ddd6"/><text x="662.7" y="331.8" text-anchor="middle" fill="#2a2623" font-size="11" font-family="Segoe UI, Arial, sans-serif">-0.00</text><rect x="703.8" y="297.7" width="80.3" height="54.9" rx="8" fill="#f6ddd6"/><text x="745.0" y="331.8" text-anchor="middle" fill="#2a2623" font-size="11" font-family="Segoe UI, Arial, sans-serif">-0.00</text><rect x="786.2" y="297.7" width="80.3" height="54.9" rx="8" fill="#b4bfb0"/><text x="827.3" y="331.8" text-anchor="middle" fill="#2a2623" font-size="11" font-family="Segoe UI, Arial, sans-serif">0.32</text><rect x="868.5" y="297.7" width="80.3" height="54.9" rx="8" fill="#f5dcd5"/><text x="909.6" y="331.8" text-anchor="middle" fill="#2a2623" font-size="11" font-family="Segoe UI, Arial, sans-serif">-0.01</text><rect x="950.8" y="297.7" width="80.3" height="54.9" rx="8" fill="#b5bfb1"/><text x="991.9" y="331.8" text-anchor="middle" fill="#2a2623" font-size="11" font-family="Segoe UI, Arial, sans-serif">0.32</text><rect x="1033.1" y="297.7" width="80.3" height="54.9" rx="8" fill="#ddd2c8"/><text x="1074.2" y="331.8" text-anchor="middle" fill="#2a2623" font-size="11" font-family="Segoe UI, Arial, sans-serif">0.12</text><rect x="1115.4" y="297.7" width="80.3" height="54.9" rx="8" fill="#cecbbf"/><text x="1156.5" y="331.8" text-anchor="middle" fill="#2a2623" font-size="11" font-family="Segoe UI, Arial, sans-serif">0.19</text><rect x="1197.7" y="297.7" width="80.3" height="54.9" rx="8" fill="#97b1a0"/><text x="1238.8" y="331.8" text-anchor="middle" fill="#ffffff" font-size="11" font-family="Segoe UI, Arial, sans-serif">0.46</text><text x="198" y="391.6" text-anchor="end" fill="#2a2623" font-size="12" font-family="Segoe UI, Arial, sans-serif">mean_ambient_minus_setpoint_c</text><rect x="210.0" y="354.6" width="80.3" height="54.9" rx="8" fill="#f2d4cc"/><text x="251.2" y="388.8" text-anchor="middle" fill="#2a2623" font-size="11" font-family="Segoe UI, Arial, sans-serif">-0.07</text><rect x="292.3" y="354.6" width="80.3" height="54.9" rx="8" fill="#e5d5cc"/><text x="333.5" y="388.8" text-anchor="middle" fill="#2a2623" font-size="11" font-family="Segoe UI, Arial, sans-serif">0.09</text><rect x="374.6" y="354.6" width="80.3" height="54.9" rx="8" fill="#f0cec7"/><text x="415.8" y="388.8" text-anchor="middle" fill="#2a2623" font-size="11" font-family="Segoe UI, Arial, sans-serif">-0.10</text><rect x="456.9" y="354.6" width="80.3" height="54.9" rx="8" fill="#efccc4"/><text x="498.1" y="388.8" text-anchor="middle" fill="#2a2623" font-size="11" font-family="Segoe UI, Arial, sans-serif">-0.12</text><rect x="539.2" y="354.6" width="80.3" height="54.9" rx="8" fill="#f6ddd6"/><text x="580.4" y="388.8" text-anchor="middle" fill="#2a2623" font-size="11" font-family="Segoe UI, Arial, sans-serif">-0.00</text><rect x="621.5" y="354.6" width="80.3" height="54.9" rx="8" fill="#2a7f62"/><text x="662.7" y="388.8" text-anchor="middle" fill="#ffffff" font-size="11" font-family="Segoe UI, Arial, sans-serif">1.00</text><rect x="703.8" y="354.6" width="80.3" height="54.9" rx="8" fill="#318266"/><text x="745.0" y="388.8" text-anchor="middle" fill="#ffffff" font-size="11" font-family="Segoe UI, Arial, sans-serif">0.96</text><rect x="786.2" y="354.6" width="80.3" height="54.9" rx="8" fill="#c4c6b9"/><text x="827.3" y="388.8" text-anchor="middle" fill="#2a2623" font-size="11" font-family="Segoe UI, Arial, sans-serif">0.25</text><rect x="868.5" y="354.6" width="80.3" height="54.9" rx="8" fill="#368469"/><text x="909.6" y="388.8" text-anchor="middle" fill="#ffffff" font-size="11" font-family="Segoe UI, Arial, sans-serif">0.94</text><rect x="950.8" y="354.6" width="80.3" height="54.9" rx="8" fill="#c4c6ba"/><text x="991.9" y="388.8" text-anchor="middle" fill="#2a2623" font-size="11" font-family="Segoe UI, Arial, sans-serif">0.25</text><rect x="1033.1" y="354.6" width="80.3" height="54.9" rx="8" fill="#c6c7bb"/><text x="1074.2" y="388.8" text-anchor="middle" fill="#2a2623" font-size="11" font-family="Segoe UI, Arial, sans-serif">0.23</text><rect x="1115.4" y="354.6" width="80.3" height="54.9" rx="8" fill="#a0b6a5"/><text x="1156.5" y="388.8" text-anchor="middle" fill="#2a2623" font-size="11" font-family="Segoe UI, Arial, sans-serif">0.42</text><rect x="1197.7" y="354.6" width="80.3" height="54.9" rx="8" fill="#a3b7a7"/><text x="1238.8" y="388.8" text-anchor="middle" fill="#2a2623" font-size="11" font-family="Segoe UI, Arial, sans-serif">0.41</text><text x="198" y="448.5" text-anchor="end" fill="#2a2623" font-size="12" font-family="Segoe UI, Arial, sans-serif">mean_temperature_ambient_c</text><rect x="210.0" y="411.5" width="80.3" height="54.9" rx="8" fill="#f1d2ca"/><text x="251.2" y="445.7" text-anchor="middle" fill="#2a2623" font-size="11" font-family="Segoe UI, Arial, sans-serif">-0.08</text><rect x="292.3" y="411.5" width="80.3" height="54.9" rx="8" fill="#e4d5cc"/><text x="333.5" y="445.7" text-anchor="middle" fill="#2a2623" font-size="11" font-family="Segoe UI, Arial, sans-serif">0.09</text><rect x="374.6" y="411.5" width="80.3" height="54.9" rx="8" fill="#efcec6"/><text x="415.8" y="445.7" text-anchor="middle" fill="#2a2623" font-size="11" font-family="Segoe UI, Arial, sans-serif">-0.11</text><rect x="456.9" y="411.5" width="80.3" height="54.9" rx="8" fill="#eeccc4"/><text x="498.1" y="445.7" text-anchor="middle" fill="#2a2623" font-size="11" font-family="Segoe UI, Arial, sans-serif">-0.12</text><rect x="539.2" y="411.5" width="80.3" height="54.9" rx="8" fill="#f6ddd6"/><text x="580.4" y="445.7" text-anchor="middle" fill="#2a2623" font-size="11" font-family="Segoe UI, Arial, sans-serif">-0.00</text><rect x="621.5" y="411.5" width="80.3" height="54.9" rx="8" fill="#318266"/><text x="662.7" y="445.7" text-anchor="middle" fill="#ffffff" font-size="11" font-family="Segoe UI, Arial, sans-serif">0.96</text><rect x="703.8" y="411.5" width="80.3" height="54.9" rx="8" fill="#2a7f62"/><text x="745.0" y="445.7" text-anchor="middle" fill="#ffffff" font-size="11" font-family="Segoe UI, Arial, sans-serif">1.00</text><rect x="786.2" y="411.5" width="80.3" height="54.9" rx="8" fill="#c1c5b8"/><text x="827.3" y="445.7" text-anchor="middle" fill="#2a2623" font-size="11" font-family="Segoe UI, Arial, sans-serif">0.26</text><rect x="868.5" y="411.5" width="80.3" height="54.9" rx="8" fill="#438a70"/><text x="909.6" y="445.7" text-anchor="middle" fill="#ffffff" font-size="11" font-family="Segoe UI, Arial, sans-serif">0.88</text><rect x="950.8" y="411.5" width="80.3" height="54.9" rx="8" fill="#c1c5b8"/><text x="991.9" y="445.7" text-anchor="middle" fill="#2a2623" font-size="11" font-family="Segoe UI, Arial, sans-serif">0.26</text><rect x="1033.1" y="411.5" width="80.3" height="54.9" rx="8" fill="#c7c7bb"/><text x="1074.2" y="445.7" text-anchor="middle" fill="#2a2623" font-size="11" font-family="Segoe UI, Arial, sans-serif">0.23</text><rect x="1115.4" y="411.5" width="80.3" height="54.9" rx="8" fill="#9ab2a2"/><text x="1156.5" y="445.7" text-anchor="middle" fill="#ffffff" font-size="11" font-family="Segoe UI, Arial, sans-serif">0.45</text><rect x="1197.7" y="411.5" width="80.3" height="54.9" rx="8" fill="#a7b8a9"/><text x="1238.8" y="445.7" text-anchor="middle" fill="#2a2623" font-size="11" font-family="Segoe UI, Arial, sans-serif">0.39</text><text x="198" y="505.5" text-anchor="end" fill="#2a2623" font-size="12" font-family="Segoe UI, Arial, sans-serif">month</text><rect x="210.0" y="468.5" width="80.3" height="54.9" rx="8" fill="#bdc3b6"/><text x="251.2" y="502.6" text-anchor="middle" fill="#2a2623" font-size="11" font-family="Segoe UI, Arial, sans-serif">0.28</text><rect x="292.3" y="468.5" width="80.3" height="54.9" rx="8" fill="#dea69c"/><text x="333.5" y="502.6" text-anchor="middle" fill="#2a2623" font-size="11" font-family="Segoe UI, Arial, sans-serif">-0.39</text><rect x="374.6" y="468.5" width="80.3" height="54.9" rx="8" fill="#adbbac"/><text x="415.8" y="502.6" text-anchor="middle" fill="#2a2623" font-size="11" font-family="Segoe UI, Arial, sans-serif">0.36</text><rect x="456.9" y="468.5" width="80.3" height="54.9" rx="8" fill="#b9c1b4"/><text x="498.1" y="502.6" text-anchor="middle" fill="#2a2623" font-size="11" font-family="Segoe UI, Arial, sans-serif">0.30</text><rect x="539.2" y="468.5" width="80.3" height="54.9" rx="8" fill="#b4bfb0"/><text x="580.4" y="502.6" text-anchor="middle" fill="#2a2623" font-size="11" font-family="Segoe UI, Arial, sans-serif">0.32</text><rect x="621.5" y="468.5" width="80.3" height="54.9" rx="8" fill="#c4c6b9"/><text x="662.7" y="502.6" text-anchor="middle" fill="#2a2623" font-size="11" font-family="Segoe UI, Arial, sans-serif">0.25</text><rect x="703.8" y="468.5" width="80.3" height="54.9" rx="8" fill="#c1c5b8"/><text x="745.0" y="502.6" text-anchor="middle" fill="#2a2623" font-size="11" font-family="Segoe UI, Arial, sans-serif">0.26</text><rect x="786.2" y="468.5" width="80.3" height="54.9" rx="8" fill="#2a7f62"/><text x="827.3" y="502.6" text-anchor="middle" fill="#ffffff" font-size="11" font-family="Segoe UI, Arial, sans-serif">1.00</text><rect x="868.5" y="468.5" width="80.3" height="54.9" rx="8" fill="#c1c5b8"/><text x="909.6" y="502.6" text-anchor="middle" fill="#2a2623" font-size="11" font-family="Segoe UI, Arial, sans-serif">0.26</text><rect x="950.8" y="468.5" width="80.3" height="54.9" rx="8" fill="#2b7f62"/><text x="991.9" y="502.6" text-anchor="middle" fill="#ffffff" font-size="11" font-family="Segoe UI, Arial, sans-serif">1.00</text><rect x="1033.1" y="468.5" width="80.3" height="54.9" rx="8" fill="#efcec6"/><text x="1074.2" y="502.6" text-anchor="middle" fill="#2a2623" font-size="11" font-family="Segoe UI, Arial, sans-serif">-0.11</text><rect x="1115.4" y="468.5" width="80.3" height="54.9" rx="8" fill="#84a995"/><text x="1156.5" y="502.6" text-anchor="middle" fill="#ffffff" font-size="11" font-family="Segoe UI, Arial, sans-serif">0.56</text><rect x="1197.7" y="468.5" width="80.3" height="54.9" rx="8" fill="#a9b9aa"/><text x="1238.8" y="502.6" text-anchor="middle" fill="#2a2623" font-size="11" font-family="Segoe UI, Arial, sans-serif">0.38</text><text x="198" y="562.4" text-anchor="end" fill="#2a2623" font-size="12" font-family="Segoe UI, Arial, sans-serif">mean_return_minus_supply_c</text><rect x="210.0" y="525.4" width="80.3" height="54.9" rx="8" fill="#f1d1c9"/><text x="251.2" y="559.5" text-anchor="middle" fill="#2a2623" font-size="11" font-family="Segoe UI, Arial, sans-serif">-0.09</text><rect x="292.3" y="525.4" width="80.3" height="54.9" rx="8" fill="#e8d6ce"/><text x="333.5" y="559.5" text-anchor="middle" fill="#2a2623" font-size="11" font-family="Segoe UI, Arial, sans-serif">0.07</text><rect x="374.6" y="525.4" width="80.3" height="54.9" rx="8" fill="#f0d0c9"/><text x="415.8" y="559.5" text-anchor="middle" fill="#2a2623" font-size="11" font-family="Segoe UI, Arial, sans-serif">-0.09</text><rect x="456.9" y="525.4" width="80.3" height="54.9" rx="8" fill="#f0cfc7"/><text x="498.1" y="559.5" text-anchor="middle" fill="#2a2623" font-size="11" font-family="Segoe UI, Arial, sans-serif">-0.10</text><rect x="539.2" y="525.4" width="80.3" height="54.9" rx="8" fill="#f5dcd5"/><text x="580.4" y="559.5" text-anchor="middle" fill="#2a2623" font-size="11" font-family="Segoe UI, Arial, sans-serif">-0.01</text><rect x="621.5" y="525.4" width="80.3" height="54.9" rx="8" fill="#368469"/><text x="662.7" y="559.5" text-anchor="middle" fill="#ffffff" font-size="11" font-family="Segoe UI, Arial, sans-serif">0.94</text><rect x="703.8" y="525.4" width="80.3" height="54.9" rx="8" fill="#438a70"/><text x="745.0" y="559.5" text-anchor="middle" fill="#ffffff" font-size="11" font-family="Segoe UI, Arial, sans-serif">0.88</text><rect x="786.2" y="525.4" width="80.3" height="54.9" rx="8" fill="#c1c5b8"/><text x="827.3" y="559.5" text-anchor="middle" fill="#2a2623" font-size="11" font-family="Segoe UI, Arial, sans-serif">0.26</text><rect x="868.5" y="525.4" width="80.3" height="54.9" rx="8" fill="#2a7f62"/><text x="909.6" y="559.5" text-anchor="middle" fill="#ffffff" font-size="11" font-family="Segoe UI, Arial, sans-serif">1.00</text><rect x="950.8" y="525.4" width="80.3" height="54.9" rx="8" fill="#c1c5b8"/><text x="991.9" y="559.5" text-anchor="middle" fill="#2a2623" font-size="11" font-family="Segoe UI, Arial, sans-serif">0.26</text><rect x="1033.1" y="525.4" width="80.3" height="54.9" rx="8" fill="#d0ccc1"/><text x="1074.2" y="559.5" text-anchor="middle" fill="#2a2623" font-size="11" font-family="Segoe UI, Arial, sans-serif">0.19</text><rect x="1115.4" y="525.4" width="80.3" height="54.9" rx="8" fill="#aebcad"/><text x="1156.5" y="559.5" text-anchor="middle" fill="#2a2623" font-size="11" font-family="Segoe UI, Arial, sans-serif">0.35</text><rect x="1197.7" y="525.4" width="80.3" height="54.9" rx="8" fill="#a9baaa"/><text x="1238.8" y="559.5" text-anchor="middle" fill="#2a2623" font-size="11" font-family="Segoe UI, Arial, sans-serif">0.38</text><text x="198" y="619.3" text-anchor="end" fill="#2a2623" font-size="12" font-family="Segoe UI, Arial, sans-serif">day_of_year</text><rect x="210.0" y="582.3" width="80.3" height="54.9" rx="8" fill="#bfc4b7"/><text x="251.2" y="616.5" text-anchor="middle" fill="#2a2623" font-size="11" font-family="Segoe UI, Arial, sans-serif">0.27</text><rect x="292.3" y="582.3" width="80.3" height="54.9" rx="8" fill="#dea69d"/><text x="333.5" y="616.5" text-anchor="middle" fill="#2a2623" font-size="11" font-family="Segoe UI, Arial, sans-serif">-0.39</text><rect x="374.6" y="582.3" width="80.3" height="54.9" rx="8" fill="#aebcad"/><text x="415.8" y="616.5" text-anchor="middle" fill="#2a2623" font-size="11" font-family="Segoe UI, Arial, sans-serif">0.35</text><rect x="456.9" y="582.3" width="80.3" height="54.9" rx="8" fill="#bac1b4"/><text x="498.1" y="616.5" text-anchor="middle" fill="#2a2623" font-size="11" font-family="Segoe UI, Arial, sans-serif">0.29</text><rect x="539.2" y="582.3" width="80.3" height="54.9" rx="8" fill="#b5bfb1"/><text x="580.4" y="616.5" text-anchor="middle" fill="#2a2623" font-size="11" font-family="Segoe UI, Arial, sans-serif">0.32</text><rect x="621.5" y="582.3" width="80.3" height="54.9" rx="8" fill="#c4c6ba"/><text x="662.7" y="616.5" text-anchor="middle" fill="#2a2623" font-size="11" font-family="Segoe UI, Arial, sans-serif">0.25</text><rect x="703.8" y="582.3" width="80.3" height="54.9" rx="8" fill="#c1c5b8"/><text x="745.0" y="616.5" text-anchor="middle" fill="#2a2623" font-size="11" font-family="Segoe UI, Arial, sans-serif">0.26</text><rect x="786.2" y="582.3" width="80.3" height="54.9" rx="8" fill="#2b7f62"/><text x="827.3" y="616.5" text-anchor="middle" fill="#ffffff" font-size="11" font-family="Segoe UI, Arial, sans-serif">1.00</text><rect x="868.5" y="582.3" width="80.3" height="54.9" rx="8" fill="#c1c5b8"/><text x="909.6" y="616.5" text-anchor="middle" fill="#2a2623" font-size="11" font-family="Segoe UI, Arial, sans-serif">0.26</text><rect x="950.8" y="582.3" width="80.3" height="54.9" rx="8" fill="#2a7f62"/><text x="991.9" y="616.5" text-anchor="middle" fill="#ffffff" font-size="11" font-family="Segoe UI, Arial, sans-serif">1.00</text><rect x="1033.1" y="582.3" width="80.3" height="54.9" rx="8" fill="#f0cec7"/><text x="1074.2" y="616.5" text-anchor="middle" fill="#2a2623" font-size="11" font-family="Segoe UI, Arial, sans-serif">-0.10</text><rect x="1115.4" y="582.3" width="80.3" height="54.9" rx="8" fill="#85a996"/><text x="1156.5" y="616.5" text-anchor="middle" fill="#ffffff" font-size="11" font-family="Segoe UI, Arial, sans-serif">0.55</text><rect x="1197.7" y="582.3" width="80.3" height="54.9" rx="8" fill="#aabaab"/><text x="1238.8" y="616.5" text-anchor="middle" fill="#2a2623" font-size="11" font-family="Segoe UI, Arial, sans-serif">0.37</text><text x="198" y="676.2" text-anchor="end" fill="#2a2623" font-size="12" font-family="Segoe UI, Arial, sans-serif">share_hardware_decosiiih</text><rect x="210.0" y="639.2" width="80.3" height="54.9" rx="8" fill="#d7cfc4"/><text x="251.2" y="673.4" text-anchor="middle" fill="#2a2623" font-size="11" font-family="Segoe UI, Arial, sans-serif">0.15</text><rect x="292.3" y="639.2" width="80.3" height="54.9" rx="8" fill="#f5dad2"/><text x="333.5" y="673.4" text-anchor="middle" fill="#2a2623" font-size="11" font-family="Segoe UI, Arial, sans-serif">-0.02</text><rect x="374.6" y="639.2" width="80.3" height="54.9" rx="8" fill="#f6dcd5"/><text x="415.8" y="673.4" text-anchor="middle" fill="#2a2623" font-size="11" font-family="Segoe UI, Arial, sans-serif">-0.00</text><rect x="456.9" y="639.2" width="80.3" height="54.9" rx="8" fill="#f3d7d0"/><text x="498.1" y="673.4" text-anchor="middle" fill="#2a2623" font-size="11" font-family="Segoe UI, Arial, sans-serif">-0.04</text><rect x="539.2" y="639.2" width="80.3" height="54.9" rx="8" fill="#ddd2c8"/><text x="580.4" y="673.4" text-anchor="middle" fill="#2a2623" font-size="11" font-family="Segoe UI, Arial, sans-serif">0.12</text><rect x="621.5" y="639.2" width="80.3" height="54.9" rx="8" fill="#c6c7bb"/><text x="662.7" y="673.4" text-anchor="middle" fill="#2a2623" font-size="11" font-family="Segoe UI, Arial, sans-serif">0.23</text><rect x="703.8" y="639.2" width="80.3" height="54.9" rx="8" fill="#c7c7bb"/><text x="745.0" y="673.4" text-anchor="middle" fill="#2a2623" font-size="11" font-family="Segoe UI, Arial, sans-serif">0.23</text><rect x="786.2" y="639.2" width="80.3" height="54.9" rx="8" fill="#efcec6"/><text x="827.3" y="673.4" text-anchor="middle" fill="#2a2623" font-size="11" font-family="Segoe UI, Arial, sans-serif">-0.11</text><rect x="868.5" y="639.2" width="80.3" height="54.9" rx="8" fill="#d0ccc1"/><text x="909.6" y="673.4" text-anchor="middle" fill="#2a2623" font-size="11" font-family="Segoe UI, Arial, sans-serif">0.19</text><rect x="950.8" y="639.2" width="80.3" height="54.9" rx="8" fill="#f0cec7"/><text x="991.9" y="673.4" text-anchor="middle" fill="#2a2623" font-size="11" font-family="Segoe UI, Arial, sans-serif">-0.10</text><rect x="1033.1" y="639.2" width="80.3" height="54.9" rx="8" fill="#2a7f62"/><text x="1074.2" y="673.4" text-anchor="middle" fill="#ffffff" font-size="11" font-family="Segoe UI, Arial, sans-serif">1.00</text><rect x="1115.4" y="639.2" width="80.3" height="54.9" rx="8" fill="#e3d4cb"/><text x="1156.5" y="673.4" text-anchor="middle" fill="#2a2623" font-size="11" font-family="Segoe UI, Arial, sans-serif">0.09</text><rect x="1197.7" y="639.2" width="80.3" height="54.9" rx="8" fill="#b0bdae"/><text x="1238.8" y="673.4" text-anchor="middle" fill="#2a2623" font-size="11" font-family="Segoe UI, Arial, sans-serif">0.34</text><text x="198" y="733.2" text-anchor="end" fill="#2a2623" font-size="12" font-family="Segoe UI, Arial, sans-serif">share_hardware_ml5</text><rect x="210.0" y="696.2" width="80.3" height="54.9" rx="8" fill="#d9d0c6"/><text x="251.2" y="730.3" text-anchor="middle" fill="#2a2623" font-size="11" font-family="Segoe UI, Arial, sans-serif">0.14</text><rect x="292.3" y="696.2" width="80.3" height="54.9" rx="8" fill="#edc9c1"/><text x="333.5" y="730.3" text-anchor="middle" fill="#2a2623" font-size="11" font-family="Segoe UI, Arial, sans-serif">-0.14</text><rect x="374.6" y="696.2" width="80.3" height="54.9" rx="8" fill="#e0d3c9"/><text x="415.8" y="730.3" text-anchor="middle" fill="#2a2623" font-size="11" font-family="Segoe UI, Arial, sans-serif">0.11</text><rect x="456.9" y="696.2" width="80.3" height="54.9" rx="8" fill="#e9d7cf"/><text x="498.1" y="730.3" text-anchor="middle" fill="#2a2623" font-size="11" font-family="Segoe UI, Arial, sans-serif">0.06</text><rect x="539.2" y="696.2" width="80.3" height="54.9" rx="8" fill="#cecbbf"/><text x="580.4" y="730.3" text-anchor="middle" fill="#2a2623" font-size="11" font-family="Segoe UI, Arial, sans-serif">0.19</text><rect x="621.5" y="696.2" width="80.3" height="54.9" rx="8" fill="#a0b6a5"/><text x="662.7" y="730.3" text-anchor="middle" fill="#2a2623" font-size="11" font-family="Segoe UI, Arial, sans-serif">0.42</text><rect x="703.8" y="696.2" width="80.3" height="54.9" rx="8" fill="#9ab2a2"/><text x="745.0" y="730.3" text-anchor="middle" fill="#ffffff" font-size="11" font-family="Segoe UI, Arial, sans-serif">0.45</text><rect x="786.2" y="696.2" width="80.3" height="54.9" rx="8" fill="#84a995"/><text x="827.3" y="730.3" text-anchor="middle" fill="#ffffff" font-size="11" font-family="Segoe UI, Arial, sans-serif">0.56</text><rect x="868.5" y="696.2" width="80.3" height="54.9" rx="8" fill="#aebcad"/><text x="909.6" y="730.3" text-anchor="middle" fill="#2a2623" font-size="11" font-family="Segoe UI, Arial, sans-serif">0.35</text><rect x="950.8" y="696.2" width="80.3" height="54.9" rx="8" fill="#85a996"/><text x="991.9" y="730.3" text-anchor="middle" fill="#ffffff" font-size="11" font-family="Segoe UI, Arial, sans-serif">0.55</text><rect x="1033.1" y="696.2" width="80.3" height="54.9" rx="8" fill="#e3d4cb"/><text x="1074.2" y="730.3" text-anchor="middle" fill="#2a2623" font-size="11" font-family="Segoe UI, Arial, sans-serif">0.09</text><rect x="1115.4" y="696.2" width="80.3" height="54.9" rx="8" fill="#2a7f62"/><text x="1156.5" y="730.3" text-anchor="middle" fill="#ffffff" font-size="11" font-family="Segoe UI, Arial, sans-serif">1.00</text><rect x="1197.7" y="696.2" width="80.3" height="54.9" rx="8" fill="#b3beb0"/><text x="1238.8" y="730.3" text-anchor="middle" fill="#2a2623" font-size="11" font-family="Segoe UI, Arial, sans-serif">0.33</text><text x="198" y="790.1" text-anchor="end" fill="#2a2623" font-size="12" font-family="Segoe UI, Arial, sans-serif">label_power_kw</text><rect x="210.0" y="753.1" width="80.3" height="54.9" rx="8" fill="#54927a"/><text x="251.2" y="787.2" text-anchor="middle" fill="#ffffff" font-size="11" font-family="Segoe UI, Arial, sans-serif">0.79</text><rect x="292.3" y="753.1" width="80.3" height="54.9" rx="8" fill="#d1897d"/><text x="333.5" y="787.2" text-anchor="middle" fill="#ffffff" font-size="11" font-family="Segoe UI, Arial, sans-serif">-0.60</text><rect x="374.6" y="753.1" width="80.3" height="54.9" rx="8" fill="#83a894"/><text x="415.8" y="787.2" text-anchor="middle" fill="#ffffff" font-size="11" font-family="Segoe UI, Arial, sans-serif">0.57</text><rect x="456.9" y="753.1" width="80.3" height="54.9" rx="8" fill="#93af9e"/><text x="498.1" y="787.2" text-anchor="middle" fill="#ffffff" font-size="11" font-family="Segoe UI, Arial, sans-serif">0.49</text><rect x="539.2" y="753.1" width="80.3" height="54.9" rx="8" fill="#97b1a0"/><text x="580.4" y="787.2" text-anchor="middle" fill="#ffffff" font-size="11" font-family="Segoe UI, Arial, sans-serif">0.46</text><rect x="621.5" y="753.1" width="80.3" height="54.9" rx="8" fill="#a3b7a7"/><text x="662.7" y="787.2" text-anchor="middle" fill="#2a2623" font-size="11" font-family="Segoe UI, Arial, sans-serif">0.41</text><rect x="703.8" y="753.1" width="80.3" height="54.9" rx="8" fill="#a7b8a9"/><text x="745.0" y="787.2" text-anchor="middle" fill="#2a2623" font-size="11" font-family="Segoe UI, Arial, sans-serif">0.39</text><rect x="786.2" y="753.1" width="80.3" height="54.9" rx="8" fill="#a9b9aa"/><text x="827.3" y="787.2" text-anchor="middle" fill="#2a2623" font-size="11" font-family="Segoe UI, Arial, sans-serif">0.38</text><rect x="868.5" y="753.1" width="80.3" height="54.9" rx="8" fill="#a9baaa"/><text x="909.6" y="787.2" text-anchor="middle" fill="#2a2623" font-size="11" font-family="Segoe UI, Arial, sans-serif">0.38</text><rect x="950.8" y="753.1" width="80.3" height="54.9" rx="8" fill="#aabaab"/><text x="991.9" y="787.2" text-anchor="middle" fill="#2a2623" font-size="11" font-family="Segoe UI, Arial, sans-serif">0.37</text><rect x="1033.1" y="753.1" width="80.3" height="54.9" rx="8" fill="#b0bdae"/><text x="1074.2" y="787.2" text-anchor="middle" fill="#2a2623" font-size="11" font-family="Segoe UI, Arial, sans-serif">0.34</text><rect x="1115.4" y="753.1" width="80.3" height="54.9" rx="8" fill="#b3beb0"/><text x="1156.5" y="787.2" text-anchor="middle" fill="#2a2623" font-size="11" font-family="Segoe UI, Arial, sans-serif">0.33</text><rect x="1197.7" y="753.1" width="80.3" height="54.9" rx="8" fill="#2a7f62"/><text x="1238.8" y="787.2" text-anchor="middle" fill="#ffffff" font-size="11" font-family="Segoe UI, Arial, sans-serif">1.00</text><text x="251.2" y="826.0" text-anchor="end" fill="#2a2623" font-size="12" font-family="Segoe UI, Arial, sans-serif" transform="rotate(-40 251.2 826.0)">active_container_count</text><text x="333.5" y="826.0" text-anchor="end" fill="#2a2623" font-size="12" font-family="Segoe UI, Arial, sans-serif" transform="rotate(-40 333.5 826.0)">share_stack_tier_1</text><text x="415.8" y="826.0" text-anchor="end" fill="#2a2623" font-size="12" font-family="Segoe UI, Arial, sans-serif" transform="rotate(-40 415.8 826.0)">mean_stack_tier</text><text x="498.1" y="826.0" text-anchor="end" fill="#2a2623" font-size="12" font-family="Segoe UI, Arial, sans-serif" transform="rotate(-40 498.1 826.0)">share_stack_tier_3</text><text x="580.4" y="826.0" text-anchor="end" fill="#2a2623" font-size="12" font-family="Segoe UI, Arial, sans-serif" transform="rotate(-40 580.4 826.0)">share_stack_tier_2</text><text x="662.7" y="826.0" text-anchor="end" fill="#2a2623" font-size="12" font-family="Segoe UI, Arial, sans-serif" transform="rotate(-40 662.7 826.0)">mean_ambient_minus_setpoint_c</text><text x="745.0" y="826.0" text-anchor="end" fill="#2a2623" font-size="12" font-family="Segoe UI, Arial, sans-serif" transform="rotate(-40 745.0 826.0)">mean_temperature_ambient_c</text><text x="827.3" y="826.0" text-anchor="end" fill="#2a2623" font-size="12" font-family="Segoe UI, Arial, sans-serif" transform="rotate(-40 827.3 826.0)">month</text><text x="909.6" y="826.0" text-anchor="end" fill="#2a2623" font-size="12" font-family="Segoe UI, Arial, sans-serif" transform="rotate(-40 909.6 826.0)">mean_return_minus_supply_c</text><text x="991.9" y="826.0" text-anchor="end" fill="#2a2623" font-size="12" font-family="Segoe UI, Arial, sans-serif" transform="rotate(-40 991.9 826.0)">day_of_year</text><text x="1074.2" y="826.0" text-anchor="end" fill="#2a2623" font-size="12" font-family="Segoe UI, Arial, sans-serif" transform="rotate(-40 1074.2 826.0)">share_hardware_decosiiih</text><text x="1156.5" y="826.0" text-anchor="end" fill="#2a2623" font-size="12" font-family="Segoe UI, Arial, sans-serif" transform="rotate(-40 1156.5 826.0)">share_hardware_ml5</text><text x="1238.8" y="826.0" text-anchor="end" fill="#2a2623" font-size="12" font-family="Segoe UI, Arial, sans-serif" transform="rotate(-40 1238.8 826.0)">label_power_kw</text></svg>