<svg xmlns="http://www.w3.org/2000/svg" width="1200" height="520" viewBox="0 0 1200 520"><rect width="1200" height="520" fill="#fffdf9"/><title>Average Load By Hour Of Day</title><rect x="90" y="65" width="1080" height="360" rx="18" fill="#fff7ed"/><text x="600.0" y="34" text-anchor="middle" fill="#2a2623" font-size="24" font-family="Segoe UI, Arial, sans-serif">Average Load By Hour Of Day</text><text x="24" y="260.0" text-anchor="middle" fill="#77685c" font-size="14" font-family="Segoe UI, Arial, sans-serif" transform="rotate(-90 24 260.0)">Average power (kW)</text><line x1="90" x2="1170" y1="425.0" y2="425.0" stroke="#dfcfbb" stroke-width="1"/><text x="80" y="429.0" text-anchor="end" fill="#77685c" font-size="12" font-family="Segoe UI, Arial, sans-serif">0.00</text><line x1="90" x2="1170" y1="353.0" y2="353.0" stroke="#dfcfbb" stroke-width="1"/><text x="80" y="357.0" text-anchor="end" fill="#77685c" font-size="12" font-family="Segoe UI, Arial, sans-serif">260.6</text><line x1="90" x2="1170" y1="281.0" y2="281.0" stroke="#dfcfbb" stroke-width="1"/><text x="80" y="285.0" text-anchor="end" fill="#77685c" font-size="12" font-family="Segoe UI, Arial, sans-serif">521.3</text><line x1="90" x2="1170" y1="209.0" y2="209.0" stroke="#dfcfbb" stroke-width="1"/><text x="80" y="213.0" text-anchor="end" fill="#77685c" font-size="12" font-family="Segoe UI, Arial, sans-serif">781.9</text><line x1="90" x2="1170" y1="137.0" y2="137.0" stroke="#dfcfbb" stroke-width="1"/><text x="80" y="141.0" text-anchor="end" fill="#77685c" font-size="12" font-family="Segoe UI, Arial, sans-serif">1,043</text><line x1="90" x2="1170" y1="65.0" y2="65.0" stroke="#dfcfbb" stroke-width="1"/><text x="80" y="69.0" text-anchor="end" fill="#77685c" font-size="12" font-family="Segoe UI, Arial, sans-serif">1,303</text><rect x="95.4" y="139.6" width="34.2" height="285.4" rx="8" fill="#0c6b52"/><text x="112.5" y="447.0" text-anchor="middle" fill="#77685c" font-size="11" font-family="Segoe UI, Arial, sans-serif">00</text><rect x="140.4" y="141.4" width="34.2" height="283.6" rx="8" fill="#0c6b52"/><text x="157.5" y="447.0" text-anchor="middle" fill="#77685c" font-size="11" font-family="Segoe UI, Arial, sans-serif">01</text><rect x="185.4" y="142.7" width="34.2" height="282.3" rx="8" fill="#0c6b52"/><text x="202.5" y="447.0" text-anchor="middle" fill="#77685c" font-size="11" font-family="Segoe UI, Arial, sans-serif">02</text><rect x="230.4" y="143.5" width="34.2" height="281.5" rx="8" fill="#0c6b52"/><text x="247.5" y="447.0" text-anchor="middle" fill="#77685c" font-size="11" font-family="Segoe UI, Arial, sans-serif">03</text><rect x="275.4" y="144.0" width="34.2" height="281.0" rx="8" fill="#0c6b52"/><text x="292.5" y="447.0" text-anchor="middle" fill="#77685c" font-size="11" font-family="Segoe UI, Arial, sans-serif">04</text><rect x="320.4" y="145.5" width="34.2" height="279.5" rx="8" fill="#0c6b52"/><text x="337.5" y="447.0" text-anchor="middle" fill="#77685c" font-size="11" font-family="Segoe UI, Arial, sans-serif">05</text><rect x="365.4" y="146.0" width="34.2" height="279.0" rx="8" fill="#0c6b52"/><text x="382.5" y="447.0" text-anchor="middle" fill="#77685c" font-size="11" font-family="Segoe UI, Arial, sans-serif">06</text><rect x="410.4" y="142.3" width="34.2" height="282.7" rx="8" fill="#0c6b52"/><text x="427.5" y="447.0" text-anchor="middle" fill="#77685c" font-size="11" font-family="Segoe UI, Arial, sans-serif">07</text><rect x="455.4" y="136.5" width="34.2" height="288.5" rx="8" fill="#0c6b52"/><text x="472.5" y="447.0" text-anchor="middle" fill="#77685c" font-size="11" font-family="Segoe UI, Arial, sans-serif">08</text><rect x="500.4" y="130.8" width="34.2" height="294.2" rx="8" fill="#0c6b52"/><text x="517.5" y="447.0" text-anchor="middle" fill="#77685c" font-size="11" font-family="Segoe UI, Arial, sans-serif">09</text><rect x="545.4" y="124.2" width="34.2" height="300.8" rx="8" fill="#0c6b52"/><text x="562.5" y="447.0" text-anchor="middle" fill="#77685c" font-size="11" font-family="Segoe UI, Arial, sans-serif">10</text><rect x="590.4" y="117.4" width="34.2" height="307.6" rx="8" fill="#0c6b52"/><text x="607.5" y="447.0" text-anchor="middle" fill="#77685c" font-size="11" font-family="Segoe UI, Arial, sans-serif">11</text><rect x="635.4" y="112.8" width="34.2" height="312.2" rx="8" fill="#0c6b52"/><text x="652.5" y="447.0" text-anchor="middle" fill="#77685c" font-size="11" font-family="Segoe UI, Arial, sans-serif">12</text><rect x="680.4" y="112.5" width="34.2" height="312.5" rx="8" fill="#0c6b52"/><text x="697.5" y="447.0" text-anchor="middle" fill="#77685c" font-size="11" font-family="Segoe UI, Arial, sans-serif">13</text><rect x="725.4" y="112.0" width="34.2" height="313.0" rx="8" fill="#0c6b52"/><text x="742.5" y="447.0" text-anchor="middle" fill="#77685c" font-size="11" font-family="Segoe UI, Arial, sans-serif">14</text><rect x="770.4" y="112.6" width="34.2" height="312.4" rx="8" fill="#0c6b52"/><text x="787.5" y="447.0" text-anchor="middle" fill="#77685c" font-size="11" font-family="Segoe UI, Arial, sans-serif">15</text><rect x="815.4" y="114.8" width="34.2" height="310.2" rx="8" fill="#0c6b52"/><text x="832.5" y="447.0" text-anchor="middle" fill="#77685c" font-size="11" font-family="Segoe UI, Arial, sans-serif">16</text><rect x="860.4" y="118.5" width="34.2" height="306.5" rx="8" fill="#0c6b52"/><text x="877.5" y="447.0" text-anchor="middle" fill="#77685c" font-size="11" font-family="Segoe UI, Arial, sans-serif">17</text><rect x="905.4" y="122.4" width="34.2" height="302.6" rx="8" fill="#0c6b52"/><text x="922.5" y="447.0" text-anchor="middle" fill="#77685c" font-size="11" font-family="Segoe UI, Arial, sans-serif">18</text><rect x="950.4" y="127.3" width="34.2" height="297.7" rx="8" fill="#0c6b52"/><text x="967.5" y="447.0" text-anchor="middle" fill="#77685c" font-size="11" font-family="Segoe UI, Arial, sans-serif">19</text><rect x="995.4" y="130.8" width="34.2" height="294.2" rx="8" fill="#0c6b52"/><text x="1012.5" y="447.0" text-anchor="middle" fill="#77685c" font-size="11" font-family="Segoe UI, Arial, sans-serif">20</text><rect x="1040.4" y="133.5" width="34.2" height="291.5" rx="8" fill="#0c6b52"/><text x="1057.5" y="447.0" text-anchor="middle" fill="#77685c" font-size="11" font-family="Segoe UI, Arial, sans-serif">21</text><rect x="1085.4" y="137.0" width="34.2" height="288.0" rx="8" fill="#0c6b52"/><text x="1102.5" y="447.0" text-anchor="middle" fill="#77685c" font-size="11" font-family="Segoe UI, Arial, sans-serif">22</text><rect x="1130.4" y="138.9" width="34.2" height="286.1" rx="8" fill="#0c6b52"/><text x="1147.5" y="447.0" text-anchor="middle" fill="#77685c" font-size="11" font-family="Segoe UI, Arial, sans-serif">23</text></svg>