<svg xmlns="http://www.w3.org/2000/svg" width="1200" height="520" viewBox="0 0 1200 520"><rect width="1200" height="520" fill="#fffdf9"/><title>Distribution Of Hourly Reefer Load</title><rect x="90" y="65" width="1080" height="360" rx="18" fill="#fff7ed"/><text x="600.0" y="34" text-anchor="middle" fill="#2a2623" font-size="24" font-family="Segoe UI, Arial, sans-serif">Distribution Of Hourly Reefer Load</text><text x="24" y="260.0" text-anchor="middle" fill="#77685c" font-size="14" font-family="Segoe UI, Arial, sans-serif" transform="rotate(-90 24 260.0)">Hours</text><line x1="90" x2="1170" y1="425.0" y2="425.0" stroke="#dfcfbb" stroke-width="1"/><text x="80" y="429.0" text-anchor="end" fill="#77685c" font-size="12" font-family="Segoe UI, Arial, sans-serif">0.00</text><line x1="90" x2="1170" y1="353.0" y2="353.0" stroke="#dfcfbb" stroke-width="1"/><text x="80" y="357.0" text-anchor="end" fill="#77685c" font-size="12" font-family="Segoe UI, Arial, sans-serif">248.2</text><line x1="90" x2="1170" y1="281.0" y2="281.0" stroke="#dfcfbb" stroke-width="1"/><text x="80" y="285.0" text-anchor="end" fill="#77685c" font-size="12" font-family="Segoe UI, Arial, sans-serif">496.3</text><line x1="90" x2="1170" y1="209.0" y2="209.0" stroke="#dfcfbb" stroke-width="1"/><text x="80" y="213.0" text-anchor="end" fill="#77685c" font-size="12" font-family="Segoe UI, Arial, sans-serif">744.5</text><line x1="90" x2="1170" y1="137.0" y2="137.0" stroke="#dfcfbb" stroke-width="1"/><text x="80" y="141.0" text-anchor="end" fill="#77685c" font-size="12" font-family="Segoe UI, Arial, sans-serif">992.7</text><line x1="90" x2="1170" y1="65.0" y2="65.0" stroke="#dfcfbb" stroke-width="1"/><text x="80" y="69.0" text-anchor="end" fill="#77685c" font-size="12" font-family="Segoe UI, Arial, sans-serif">1,241</text><rect x="95.4" y="421.2" width="34.2" height="3.8" rx="8" fill="#0c6b52"/><text x="112.5" y="447.0" text-anchor="middle" fill="#77685c" font-size="11" font-family="Segoe UI, Arial, sans-serif">68.64</text><rect x="140.4" y="421.2" width="34.2" height="3.8" rx="8" fill="#0c6b52"/><text x="157.5" y="447.0" text-anchor="middle" fill="#77685c" font-size="11" font-family="Segoe UI, Arial, sans-serif">155.6</text><rect x="185.4" y="420.6" width="34.2" height="4.4" rx="8" fill="#0c6b52"/><text x="202.5" y="447.0" text-anchor="middle" fill="#77685c" font-size="11" font-family="Segoe UI, Arial, sans-serif">242.5</text><rect x="230.4" y="423.5" width="34.2" height="1.5" rx="8" fill="#0c6b52"/><text x="247.5" y="447.0" text-anchor="middle" fill="#77685c" font-size="11" font-family="Segoe UI, Arial, sans-serif">329.4</text><rect x="275.4" y="419.8" width="34.2" height="5.2" rx="8" fill="#0c6b52"/><text x="292.5" y="447.0" text-anchor="middle" fill="#77685c" font-size="11" font-family="Segoe UI, Arial, sans-serif">416.3</text><rect x="320.4" y="421.5" width="34.2" height="3.5" rx="8" fill="#0c6b52"/><text x="337.5" y="447.0" text-anchor="middle" fill="#77685c" font-size="11" font-family="Segoe UI, Arial, sans-serif">503.2</text><rect x="365.4" y="396.0" width="34.2" height="29.0" rx="8" fill="#0c6b52"/><text x="382.5" y="447.0" text-anchor="middle" fill="#77685c" font-size="11" font-family="Segoe UI, Arial, sans-serif">590.1</text><rect x="410.4" y="286.3" width="34.2" height="138.7" rx="8" fill="#0c6b52"/><text x="427.5" y="447.0" text-anchor="middle" fill="#77685c" font-size="11" font-family="Segoe UI, Arial, sans-serif">677.1</text><rect x="455.4" y="167.7" width="34.2" height="257.3" rx="8" fill="#0c6b52"/><text x="472.5" y="447.0" text-anchor="middle" fill="#77685c" font-size="11" font-family="Segoe UI, Arial, sans-serif">764.0</text><rect x="500.4" y="137.2" width="34.2" height="287.8" rx="8" fill="#0c6b52"/><text x="517.5" y="447.0" text-anchor="middle" fill="#77685c" font-size="11" font-family="Segoe UI, Arial, sans-serif">850.9</text><rect x="545.4" y="146.5" width="34.2" height="278.5" rx="8" fill="#0c6b52"/><text x="562.5" y="447.0" text-anchor="middle" fill="#77685c" font-size="11" font-family="Segoe UI, Arial, sans-serif">937.8</text><rect x="590.4" y="112.0" width="34.2" height="313.0" rx="8" fill="#0c6b52"/><text x="607.5" y="447.0" text-anchor="middle" fill="#77685c" font-size="11" font-family="Segoe UI, Arial, sans-serif">1,025</text><rect x="635.4" y="136.9" width="34.2" height="288.1" rx="8" fill="#0c6b52"/><text x="652.5" y="447.0" text-anchor="middle" fill="#77685c" font-size="11" font-family="Segoe UI, Arial, sans-serif">1,112</text><rect x="680.4" y="191.2" width="34.2" height="233.8" rx="8" fill="#0c6b52"/><text x="697.5" y="447.0" text-anchor="middle" fill="#77685c" font-size="11" font-family="Segoe UI, Arial, sans-serif">1,199</text><rect x="725.4" y="286.6" width="34.2" height="138.4" rx="8" fill="#0c6b52"/><text x="742.5" y="447.0" text-anchor="middle" fill="#77685c" font-size="11" font-family="Segoe UI, Arial, sans-serif">1,285</text><rect x="770.4" y="294.7" width="34.2" height="130.3" rx="8" fill="#0c6b52"/><text x="787.5" y="447.0" text-anchor="middle" fill="#77685c" font-size="11" font-family="Segoe UI, Arial, sans-serif">1,372</text><rect x="815.4" y="304.3" width="34.2" height="120.7" rx="8" fill="#0c6b52"/><text x="832.5" y="447.0" text-anchor="middle" fill="#77685c" font-size="11" font-family="Segoe UI, Arial, sans-serif">1,459</text><rect x="860.4" y="326.6" width="34.2" height="98.4" rx="8" fill="#0c6b52"/><text x="877.5" y="447.0" text-anchor="middle" fill="#77685c" font-size="11" font-family="Segoe UI, Arial, sans-serif">1,546</text><rect x="905.4" y="375.4" width="34.2" height="49.6" rx="8" fill="#0c6b52"/><text x="922.5" y="447.0" text-anchor="middle" fill="#77685c" font-size="11" font-family="Segoe UI, Arial, sans-serif">1,633</text><rect x="950.4" y="394.5" width="34.2" height="30.5" rx="8" fill="#0c6b52"/><text x="967.5" y="447.0" text-anchor="middle" fill="#77685c" font-size="11" font-family="Segoe UI, Arial, sans-serif">1,720</text><rect x="995.4" y="413.7" width="34.2" height="11.3" rx="8" fill="#0c6b52"/><text x="1012.5" y="447.0" text-anchor="middle" fill="#77685c" font-size="11" font-family="Segoe UI, Arial, sans-serif">1,807</text><rect x="1040.4" y="421.5" width="34.2" height="3.5" rx="8" fill="#0c6b52"/><text x="1057.5" y="447.0" text-anchor="middle" fill="#77685c" font-size="11" font-family="Segoe UI, Arial, sans-serif">1,894</text><rect x="1085.4" y="420.4" width="34.2" height="4.6" rx="8" fill="#0c6b52"/><text x="1102.5" y="447.0" text-anchor="middle" fill="#77685c" font-size="11" font-family="Segoe UI, Arial, sans-serif">1,981</text><rect x="1130.4" y="422.7" width="34.2" height="2.3" rx="8" fill="#0c6b52"/><text x="1147.5" y="447.0" text-anchor="middle" fill="#77685c" font-size="11" font-family="Segoe UI, Arial, sans-serif">2,068</text></svg>